<svg xmlns="http://www.w3.org/2000/svg" xmlns:xlink="http://www.w3.org/1999/xlink" width="2000" zoomAndPan="magnify" viewBox="0 0 1500 1499.999933" height="2000" preserveAspectRatio="xMidYMid meet" version="1.0"><defs><clipPath id="7379e36b2e"><path d="M 0 143.953125 L 1500 143.953125 L 1500 1319.203125 L 0 1319.203125 Z M 0 143.953125 " clip-rule="nonzero"/></clipPath></defs><g clip-path="url(#7379e36b2e)"><path fill="#6cfe12" d="M 1476.074219 893.710938 L 1309.996094 893.710938 L 1309.996094 706.648438 C 1309.996094 693.753906 1299.503906 683.261719 1286.613281 683.261719 L 773.382812 683.261719 L 773.382812 519.582031 L 1049.78125 519.582031 C 1062.671875 519.582031 1073.167969 509.089844 1073.167969 496.199219 L 1073.167969 167.335938 C 1073.167969 154.445312 1062.671875 143.953125 1049.78125 143.953125 L 449.917969 143.953125 C 437.027344 143.953125 426.535156 154.445312 426.535156 167.335938 L 426.535156 495.898438 C 426.535156 508.789062 437.027344 519.28125 449.917969 519.28125 L 726.316406 519.28125 L 726.316406 682.964844 L 213.6875 682.964844 C 200.796875 682.964844 190.304688 693.457031 190.304688 706.347656 L 190.304688 893.410156 L 23.925781 893.410156 C 11.035156 893.410156 0.542969 903.902344 0.542969 916.792969 L 0.542969 1295.71875 C 0.542969 1308.609375 11.035156 1319.101562 23.925781 1319.101562 L 402.851562 1319.101562 C 415.742188 1319.101562 426.234375 1308.609375 426.234375 1295.71875 L 426.234375 917.09375 C 426.234375 904.203125 415.742188 893.710938 402.851562 893.710938 L 237.070312 893.710938 L 237.070312 730.03125 L 726.617188 730.03125 L 726.617188 893.710938 L 560.539062 893.710938 C 547.648438 893.710938 537.152344 904.203125 537.152344 917.09375 L 537.152344 1296.019531 C 537.152344 1308.910156 547.648438 1319.402344 560.539062 1319.402344 L 939.460938 1319.402344 C 952.351562 1319.402344 962.847656 1308.910156 962.847656 1296.019531 L 962.847656 917.09375 C 962.847656 904.203125 952.351562 893.710938 939.460938 893.710938 L 773.382812 893.710938 L 773.382812 730.03125 L 1262.929688 730.03125 L 1262.929688 893.710938 L 1096.847656 893.710938 C 1083.957031 893.710938 1073.464844 904.203125 1073.464844 917.09375 L 1073.464844 1296.019531 C 1073.464844 1308.910156 1083.957031 1319.402344 1096.847656 1319.402344 L 1475.773438 1319.402344 C 1488.664062 1319.402344 1499.15625 1308.910156 1499.15625 1296.019531 L 1499.15625 917.09375 C 1499.457031 904.203125 1488.964844 893.710938 1476.074219 893.710938 Z M 473.601562 191.019531 L 1026.699219 191.019531 L 1026.699219 472.515625 L 473.601562 472.515625 Z M 379.46875 1272.636719 L 47.609375 1272.636719 L 47.609375 940.777344 L 379.769531 940.777344 L 379.769531 1272.636719 Z M 916.078125 1272.636719 L 583.921875 1272.636719 L 583.921875 940.777344 L 916.078125 940.777344 Z M 1452.390625 1272.636719 L 1120.53125 1272.636719 L 1120.53125 940.777344 L 1452.691406 940.777344 L 1452.691406 1272.636719 Z M 1452.390625 1272.636719 " fill-opacity="1" fill-rule="nonzero"/></g></svg>