<svg xmlns="http://www.w3.org/2000/svg" xmlns:xlink="http://www.w3.org/1999/xlink" width="2000" zoomAndPan="magnify" viewBox="0 0 1500 1499.999933" height="2000" preserveAspectRatio="xMidYMid meet" version="1.0"><defs><clipPath id="75d3ece3c0"><path d="M 0 1.125 L 1500 1.125 L 1500 1499.625 L 0 1499.625 Z M 0 1.125 " clip-rule="nonzero"/></clipPath></defs><path fill="#6cfe12" d="M 1215.578125 687.332031 L 999.734375 687.332031 C 986.636719 687.332031 976.015625 697.949219 976.015625 711.046875 L 976.015625 926.894531 C 976.015625 939.996094 986.636719 950.609375 999.734375 950.609375 L 1215.578125 950.609375 C 1228.675781 950.609375 1239.292969 939.996094 1239.292969 926.894531 L 1239.292969 711.046875 C 1239.292969 697.949219 1228.675781 687.332031 1215.578125 687.332031 Z M 1191.863281 903.179688 L 1023.449219 903.179688 L 1023.449219 734.765625 L 1191.863281 734.765625 Z M 1191.863281 903.179688 " fill-opacity="1" fill-rule="nonzero"/><g clip-path="url(#75d3ece3c0)"><path fill="#6cfe12" d="M 1480.027344 840.679688 C 1493.125 840.679688 1503.742188 830.0625 1503.742188 816.960938 C 1503.742188 803.859375 1493.125 793.246094 1480.027344 793.246094 L 1353.5625 793.246094 L 1353.5625 736.328125 L 1480.027344 736.328125 C 1493.125 736.328125 1503.742188 725.710938 1503.742188 712.609375 C 1503.742188 699.511719 1493.125 688.894531 1480.027344 688.894531 L 1353.5625 688.894531 L 1353.5625 596.777344 C 1353.5625 583.675781 1342.945312 573.0625 1329.847656 573.0625 L 1268.160156 573.0625 L 1268.160156 436.621094 L 1368.128906 391.003906 C 1376.578125 387.144531 1382 378.714844 1382 369.429688 L 1382 189.273438 C 1382 176.171875 1371.382812 165.558594 1358.285156 165.558594 C 1345.1875 165.558594 1334.566406 176.171875 1334.566406 189.273438 L 1334.566406 354.179688 L 1234.597656 399.796875 C 1226.148438 403.65625 1220.730469 412.085938 1220.730469 421.371094 L 1220.730469 573.0625 L 1129.027344 573.0625 L 1129.027344 340.601562 L 1239.492188 283.734375 C 1247.386719 279.671875 1252.351562 271.53125 1252.351562 262.648438 L 1252.351562 24.839844 C 1252.351562 11.742188 1241.734375 1.125 1228.636719 1.125 C 1215.539062 1.125 1204.917969 11.742188 1204.917969 24.839844 L 1204.917969 248.183594 L 1094.457031 305.054688 C 1086.558594 309.117188 1081.59375 317.253906 1081.59375 326.136719 L 1081.59375 573.0625 L 996.214844 573.0625 L 996.214844 423.273438 C 996.214844 415.164062 992.074219 407.617188 985.230469 403.265625 L 585.21875 148.710938 C 581.414062 146.289062 576.996094 145.003906 572.488281 145.003906 L 283.417969 145.003906 C 273.902344 120.742188 250.3125 103.492188 222.71875 103.492188 C 186.75 103.492188 157.488281 132.753906 157.488281 168.71875 C 157.488281 204.6875 186.75 233.949219 222.71875 233.949219 C 250.3125 233.949219 273.902344 216.695312 283.417969 192.4375 L 565.582031 192.4375 L 948.785156 436.292969 L 948.785156 573.0625 L 885.464844 573.0625 C 872.367188 573.0625 861.75 583.675781 861.75 596.777344 L 861.75 616.164062 L 534.757812 616.164062 C 525.242188 591.90625 501.652344 574.652344 474.054688 574.652344 C 438.085938 574.652344 408.828125 603.914062 408.828125 639.882812 C 408.828125 675.847656 438.089844 705.109375 474.054688 705.109375 C 501.652344 705.109375 525.242188 687.859375 534.757812 663.597656 L 861.75 663.597656 L 861.75 733.164062 L 268.917969 733.164062 C 255.824219 733.164062 245.203125 743.78125 245.203125 756.882812 C 245.203125 769.980469 255.824219 780.597656 268.917969 780.597656 L 861.75 780.597656 L 861.75 847.003906 L 464.972656 847.003906 C 455.515625 847.003906 446.957031 852.621094 443.207031 861.304688 L 398.796875 964.003906 L 126.835938 964.003906 C 117.324219 939.742188 93.734375 922.488281 66.136719 922.488281 C 30.167969 922.488281 0.90625 951.753906 0.90625 987.71875 C 0.90625 1023.683594 30.171875 1052.949219 66.136719 1052.949219 C 93.734375 1052.949219 117.324219 1035.695312 126.835938 1011.433594 L 414.378906 1011.433594 C 423.835938 1011.433594 432.394531 1005.816406 436.148438 997.132812 L 480.558594 894.433594 L 861.746094 894.433594 L 861.746094 964.003906 L 616.757812 964.003906 C 603.660156 964.003906 593.042969 974.617188 593.042969 987.71875 C 593.042969 1000.820312 603.660156 1011.433594 616.757812 1011.433594 L 861.75 1011.433594 L 861.75 1041.164062 C 861.75 1054.261719 872.367188 1064.878906 885.464844 1064.878906 L 948.785156 1064.878906 L 948.785156 1188.515625 L 477.621094 1188.515625 C 472.210938 1188.515625 466.960938 1190.367188 462.75 1193.757812 L 282.664062 1338.746094 C 276.335938 1336.695312 269.601562 1335.554688 262.597656 1335.554688 C 226.628906 1335.554688 197.371094 1364.820312 197.371094 1400.785156 C 197.371094 1436.753906 226.632812 1466.015625 262.597656 1466.015625 C 298.566406 1466.015625 327.828125 1436.753906 327.828125 1400.785156 C 327.828125 1389.519531 324.953125 1378.914062 319.902344 1369.65625 L 485.984375 1235.949219 L 972.5 1235.949219 C 985.597656 1235.949219 996.214844 1225.332031 996.214844 1212.230469 L 996.214844 1064.878906 L 1081.59375 1064.878906 L 1081.59375 1476.273438 C 1081.59375 1489.371094 1092.214844 1499.988281 1105.3125 1499.988281 C 1118.410156 1499.988281 1129.027344 1489.371094 1129.027344 1476.273438 L 1129.027344 1064.878906 L 1220.730469 1064.878906 L 1220.730469 1476.273438 C 1220.730469 1489.371094 1231.347656 1499.988281 1244.445312 1499.988281 C 1257.542969 1499.988281 1268.160156 1489.371094 1268.160156 1476.273438 L 1268.160156 1064.878906 L 1329.847656 1064.878906 C 1342.945312 1064.878906 1353.5625 1054.261719 1353.5625 1041.164062 L 1353.5625 948.191406 L 1480.027344 948.191406 C 1493.125 948.191406 1503.742188 937.578125 1503.742188 924.476562 C 1503.742188 911.375 1493.125 900.757812 1480.027344 900.757812 L 1353.5625 900.757812 L 1353.5625 840.679688 Z M 222.71875 186.515625 C 212.90625 186.515625 204.921875 178.535156 204.921875 168.71875 C 204.921875 158.902344 212.90625 150.921875 222.71875 150.921875 C 232.53125 150.921875 240.515625 158.902344 240.515625 168.71875 C 240.515625 178.535156 232.53125 186.515625 222.71875 186.515625 Z M 474.054688 657.679688 C 464.238281 657.679688 456.257812 649.695312 456.257812 639.882812 C 456.257812 630.066406 464.242188 622.085938 474.054688 622.085938 C 483.867188 622.085938 491.851562 630.066406 491.851562 639.882812 C 491.851562 649.695312 483.867188 657.679688 474.054688 657.679688 Z M 66.136719 1005.515625 C 56.320312 1005.515625 48.339844 997.535156 48.339844 987.71875 C 48.339844 977.902344 56.324219 969.921875 66.136719 969.921875 C 75.949219 969.921875 83.933594 977.902344 83.933594 987.71875 C 83.933594 997.535156 75.949219 1005.515625 66.136719 1005.515625 Z M 262.59375 1418.585938 C 252.78125 1418.585938 244.800781 1410.601562 244.800781 1400.785156 C 244.800781 1390.96875 252.78125 1382.988281 262.59375 1382.988281 C 272.410156 1382.988281 280.390625 1390.96875 280.390625 1400.785156 C 280.390625 1410.601562 272.410156 1418.585938 262.59375 1418.585938 Z M 1306.128906 1017.445312 L 909.179688 1017.445312 L 909.179688 989.25 C 909.210938 988.738281 909.257812 988.234375 909.257812 987.71875 C 909.257812 987.203125 909.210938 986.695312 909.179688 986.1875 L 909.179688 872.25 C 909.210938 871.738281 909.257812 871.234375 909.257812 870.71875 C 909.257812 870.203125 909.210938 869.695312 909.179688 869.1875 L 909.179688 758.410156 C 909.210938 757.902344 909.257812 757.394531 909.257812 756.882812 C 909.257812 756.367188 909.210938 755.859375 909.179688 755.351562 L 909.179688 641.410156 C 909.210938 640.902344 909.257812 640.398438 909.257812 639.882812 C 909.257812 639.367188 909.210938 638.859375 909.179688 638.351562 L 909.179688 620.492188 L 1100.980469 620.492188 C 1102.386719 620.753906 1103.832031 620.90625 1105.3125 620.90625 C 1106.796875 620.90625 1108.242188 620.753906 1109.648438 620.492188 L 1240.117188 620.492188 C 1241.523438 620.753906 1242.96875 620.90625 1244.453125 620.90625 C 1245.933594 620.90625 1247.378906 620.753906 1248.789062 620.492188 L 1306.140625 620.492188 L 1306.140625 1017.445312 Z M 1306.128906 1017.445312 " fill-opacity="1" fill-rule="nonzero"/></g></svg>