<svg xmlns="http://www.w3.org/2000/svg" xmlns:xlink="http://www.w3.org/1999/xlink" width="2000" zoomAndPan="magnify" viewBox="0 0 1500 1499.999933" height="2000" preserveAspectRatio="xMidYMid meet" version="1.0"><path fill="#6cfe12" d="M 891.792969 1402.402344 C 879.042969 1408.40625 865.804688 1413 852.074219 1416.179688 C 838.339844 1419.355469 824.429688 1421.050781 810.335938 1421.257812 C 799.96875 1421.148438 789.667969 1420.257812 779.433594 1418.585938 C 769.203125 1416.914062 759.152344 1414.476562 749.289062 1411.28125 C 739.425781 1408.082031 729.859375 1404.160156 720.589844 1399.511719 C 711.324219 1394.863281 702.457031 1389.539062 694 1383.546875 C 692.585938 1387.15625 691.070312 1390.726562 689.457031 1394.253906 C 687.84375 1397.78125 686.132812 1401.257812 684.320312 1404.6875 C 682.511719 1408.117188 680.605469 1411.496094 678.605469 1414.816406 C 676.605469 1418.140625 674.511719 1421.402344 672.328125 1424.605469 C 670.140625 1427.8125 667.871094 1430.953125 665.507812 1434.027344 C 663.144531 1437.105469 660.699219 1440.113281 658.167969 1443.050781 C 655.636719 1445.988281 653.023438 1448.851562 650.332031 1451.644531 C 647.636719 1454.433594 644.867188 1457.148438 642.023438 1459.78125 C 639.175781 1462.414062 636.257812 1464.96875 633.269531 1467.4375 C 630.277344 1469.910156 627.21875 1472.292969 624.097656 1474.589844 C 620.972656 1476.886719 617.785156 1479.09375 614.535156 1481.214844 C 611.285156 1483.332031 607.980469 1485.355469 604.617188 1487.285156 C 601.253906 1489.21875 597.839844 1491.054688 594.371094 1492.792969 C 590.90625 1494.53125 587.394531 1496.171875 583.832031 1497.710938 C 580.273438 1499.25 576.675781 1500.691406 573.035156 1502.027344 C 569.394531 1503.367188 565.71875 1504.601562 562.007812 1505.730469 C 565.96875 1505.730469 569.738281 1505.730469 573.699219 1505.730469 L 1017.9375 1505.730469 C 1011.234375 1503.765625 1004.644531 1501.472656 998.171875 1498.84375 C 991.699219 1496.21875 985.371094 1493.277344 979.195312 1490.015625 C 973.015625 1486.753906 967.015625 1483.191406 961.195312 1479.328125 C 955.375 1475.464844 949.761719 1471.320312 944.359375 1466.894531 C 938.953125 1462.464844 933.785156 1457.78125 928.851562 1452.835938 C 923.917969 1447.890625 919.242188 1442.707031 914.832031 1437.292969 C 910.417969 1431.878906 906.285156 1426.253906 902.4375 1420.425781 C 898.585938 1414.59375 895.039062 1408.585938 891.792969 1402.402344 Z M 891.792969 1402.402344 " fill-opacity="1" fill-rule="nonzero"/><path fill="#6cfe12" d="M 409.46875 1099.957031 C 411.226562 1099.472656 412.859375 1098.71875 414.371094 1097.695312 C 417.199219 1072.804688 420.402344 1048.859375 423.984375 1026.042969 C 423.613281 1019.613281 423.933594 1013.21875 424.953125 1006.859375 C 425.96875 1000.5 427.660156 994.324219 430.019531 988.332031 C 455.851562 843.332031 491.867188 741.511719 541.644531 679.664062 C 542.035156 679.183594 542.46875 678.746094 542.945312 678.347656 C 543.421875 677.953125 543.933594 677.605469 544.476562 677.308594 C 545.023438 677.015625 545.589844 676.773438 546.183594 676.589844 C 546.777344 676.40625 547.378906 676.28125 547.996094 676.214844 C 548.613281 676.152344 549.230469 676.148438 549.847656 676.203125 C 550.464844 676.257812 551.070312 676.375 551.664062 676.550781 C 552.261719 676.726562 552.832031 676.957031 553.382812 677.246094 C 553.929688 677.535156 554.445312 677.875 554.929688 678.261719 C 555.410156 678.652344 555.851562 679.085938 556.246094 679.5625 C 556.644531 680.039062 556.992188 680.546875 557.289062 681.09375 C 557.585938 681.636719 557.824219 682.203125 558.011719 682.796875 C 558.195312 683.386719 558.320312 683.992188 558.386719 684.609375 C 558.453125 685.226562 558.460938 685.84375 558.402344 686.460938 C 558.347656 687.078125 558.234375 687.683594 558.058594 688.277344 C 557.882812 688.875 557.652344 689.445312 557.367188 689.996094 C 557.078125 690.546875 556.742188 691.0625 556.351562 691.542969 C 551.261719 697.957031 546.171875 704.933594 541.269531 712.285156 C 503.554688 768.851562 473.765625 854.835938 452.269531 970.417969 L 454.53125 970.417969 C 458.617188 969.792969 462.703125 969.792969 466.789062 970.417969 C 481.496094 973.625 504.5 985.878906 539.949219 1021.519531 C 544.472656 814.292969 663.261719 647.234375 810.335938 647.234375 C 940.0625 647.234375 1048.484375 777.902344 1074.316406 951.753906 C 1077.363281 945.675781 1080.875 939.882812 1084.851562 934.371094 C 1088.828125 928.859375 1093.21875 923.699219 1098.027344 918.894531 C 1102.832031 914.089844 1107.992188 909.695312 1113.503906 905.71875 C 1119.011719 901.742188 1124.808594 898.230469 1130.882812 895.183594 C 1136.964844 892.910156 1143.25 891.714844 1149.738281 891.601562 C 1143.066406 860.121094 1133.828125 829.414062 1122.023438 799.476562 C 1110.222656 769.539062 1096.015625 740.792969 1079.40625 713.226562 C 1074.503906 705.875 1069.601562 698.898438 1064.511719 692.488281 C 1064.101562 692.019531 1063.738281 691.515625 1063.433594 690.976562 C 1063.125 690.433594 1062.875 689.867188 1062.683594 689.273438 C 1062.492188 688.683594 1062.363281 688.078125 1062.300781 687.457031 C 1062.234375 686.839844 1062.230469 686.21875 1062.292969 685.601562 C 1062.355469 684.980469 1062.480469 684.375 1062.667969 683.78125 C 1062.855469 683.1875 1063.101562 682.617188 1063.402344 682.074219 C 1063.707031 681.53125 1064.066406 681.027344 1064.472656 680.554688 C 1064.882812 680.085938 1065.335938 679.664062 1065.832031 679.289062 C 1066.304688 678.890625 1066.8125 678.542969 1067.355469 678.242188 C 1067.898438 677.945312 1068.464844 677.707031 1069.054688 677.523438 C 1069.644531 677.339844 1070.25 677.21875 1070.863281 677.15625 C 1071.480469 677.09375 1072.09375 677.09375 1072.710938 677.15625 C 1073.324219 677.214844 1073.929688 677.339844 1074.519531 677.523438 C 1075.109375 677.703125 1075.675781 677.945312 1076.21875 678.242188 C 1076.761719 678.535156 1077.269531 678.882812 1077.742188 679.285156 C 1078.21875 679.683594 1078.644531 680.125 1079.03125 680.609375 C 1116.742188 728.125 1148.042969 799.210938 1171.421875 895.5625 C 1221.765625 914.417969 1223.085938 999.269531 1224.21875 1068.28125 C 1224.21875 1101.089844 1224.21875 1135.027344 1231.949219 1143.703125 C 1239.679688 1152.375 1256.085938 1150.492188 1279.089844 1140.683594 C 1281.726562 1110.703125 1283.046875 1084.117188 1283.800781 1061.679688 C 1283.800781 1026.042969 1283.800781 1003.226562 1283.800781 1003.226562 L 1283.800781 979.28125 C 1283.800781 790.726562 1041.320312 464.710938 1041.320312 464.710938 L 1013.222656 219.585938 C 1013.222656 -5.359375 810.335938 -3.285156 810.335938 -3.285156 C 810.335938 -3.285156 606.695312 -5.359375 606.695312 218.644531 L 579.542969 464.710938 C 579.542969 464.710938 337.0625 790.535156 337.0625 979.28125 L 337.0625 1002.851562 C 337.0625 1002.851562 336.117188 1025.664062 337.0625 1061.304688 C 337.0625 1066.769531 337.0625 1072.617188 337.0625 1078.648438 C 367.796875 1090.339844 399.285156 1102.597656 409.46875 1099.957031 Z M 809.394531 306.890625 C 865.960938 312.167969 956.089844 325.746094 960.238281 353.652344 C 963.257812 375.148438 928.375 416.253906 921.398438 424.171875 C 906.878906 440.574219 856.34375 494.3125 810.714844 494.3125 C 765.085938 494.3125 714.550781 440.574219 700.21875 424.171875 C 693.242188 416.253906 658.359375 375.148438 661.191406 353.652344 C 664.582031 325.179688 755.65625 312.167969 809.394531 306.890625 Z M 809.394531 306.890625 " fill-opacity="1" fill-rule="nonzero"/><path fill="#6cfe12" d="M 810.335938 475.457031 C 835.039062 475.457031 872.9375 450.378906 906.691406 411.726562 C 932.523438 382.5 941.949219 361.003906 941.195312 356.101562 C 936.480469 346.484375 874.824219 331.96875 809.207031 325.554688 C 745.664062 331.96875 684.003906 346.484375 679.289062 356.480469 C 680.980469 361.699219 682.988281 366.792969 685.316406 371.761719 C 687.640625 376.734375 690.265625 381.539062 693.191406 386.179688 C 696.117188 390.824219 699.320312 395.265625 702.796875 399.507812 C 706.277344 403.75 710.007812 407.761719 713.984375 411.539062 C 747.925781 450.378906 785.636719 475.457031 810.335938 475.457031 Z M 810.335938 475.457031 " fill-opacity="1" fill-rule="nonzero"/><path fill="#6cfe12" d="M 861.246094 1287.757812 C 839.5625 1089.210938 859.550781 1048.105469 876.519531 1034.527344 C 877.554688 1033.71875 878.640625 1032.980469 879.773438 1032.3125 C 880.902344 1031.644531 882.074219 1031.050781 883.28125 1030.535156 C 884.492188 1030.015625 885.726562 1029.582031 886.992188 1029.222656 C 888.257812 1028.867188 889.539062 1028.597656 890.839844 1028.40625 C 892.140625 1028.21875 893.449219 1028.113281 894.761719 1028.09375 C 896.078125 1028.074219 897.386719 1028.140625 898.695312 1028.289062 C 900 1028.441406 901.289062 1028.675781 902.566406 1028.992188 C 903.839844 1029.3125 905.089844 1029.710938 906.3125 1030.191406 C 914.851562 1034.410156 922.796875 1039.546875 930.152344 1045.597656 C 937.507812 1051.648438 944.082031 1058.453125 949.871094 1066.015625 C 971.175781 1089.210938 986.070312 1103.726562 999.835938 1095.808594 C 1009.640625 1089.964844 1023.59375 1058.097656 1037.546875 1028.871094 C 1044.714844 1013.222656 1052.066406 996.441406 1060.175781 980.414062 C 1041.320312 802.980469 937.613281 666.089844 811.09375 666.089844 C 672.125 666.089844 559.179688 831.074219 559.179688 1033.773438 C 559.179688 1036.226562 559.179688 1038.675781 559.179688 1041.128906 C 582.183594 1065.261719 609.714844 1097.695312 643.277344 1140.121094 C 656.476562 1156.746094 668.542969 1174.15625 679.480469 1192.351562 C 683.367188 1198.707031 686.902344 1205.25 690.09375 1211.980469 C 693.285156 1218.710938 696.109375 1225.59375 698.570312 1232.625 C 701.03125 1239.65625 703.113281 1246.796875 704.8125 1254.050781 C 706.515625 1261.300781 707.828125 1268.625 708.75 1276.015625 C 709.675781 1283.40625 710.207031 1290.828125 710.34375 1298.277344 C 710.476562 1305.722656 710.21875 1313.15625 709.566406 1320.578125 C 708.910156 1328 707.867188 1335.363281 706.429688 1342.675781 C 704.996094 1349.984375 703.175781 1357.195312 700.976562 1364.3125 C 708.839844 1370.214844 717.117188 1375.472656 725.804688 1380.078125 C 734.492188 1384.6875 743.484375 1388.589844 752.78125 1391.792969 C 762.082031 1394.992188 771.570312 1397.449219 781.253906 1399.167969 C 790.9375 1400.882812 800.695312 1401.835938 810.527344 1402.023438 C 823.210938 1401.976562 835.75 1400.601562 848.140625 1397.898438 C 860.535156 1395.199219 872.507812 1391.230469 884.0625 1385.996094 C 879.027344 1374.671875 875.066406 1362.980469 872.183594 1350.925781 C 867.289062 1330.085938 863.644531 1309.03125 861.246094 1287.757812 Z M 861.246094 1287.757812 " fill-opacity="1" fill-rule="nonzero"/><path fill="#6cfe12" d="M 627.816406 1151.621094 C 601.417969 1118.058594 578.980469 1091.472656 559.746094 1069.976562 L 550.128906 1059.417969 L 540.324219 1048.859375 C 496.769531 1003.605469 473.765625 991.160156 461.695312 989.085938 C 460 988.816406 458.304688 988.816406 456.605469 989.085938 C 455.691406 989.199219 454.804688 989.421875 453.949219 989.761719 C 453.09375 990.101562 452.292969 990.542969 451.550781 991.089844 C 450.808594 991.632812 450.144531 992.261719 449.5625 992.976562 C 448.984375 993.691406 448.503906 994.46875 448.121094 995.308594 C 448.085938 995.75 448.085938 996.1875 448.121094 996.628906 C 446.253906 1001.554688 444.957031 1006.628906 444.222656 1011.847656 C 443.492188 1017.066406 443.34375 1022.300781 443.785156 1027.550781 C 443.785156 1032.832031 443.785156 1038.109375 443.785156 1043.390625 C 443.785156 1048.667969 443.785156 1049.425781 443.785156 1052.441406 C 444.417969 1057.179688 444.652344 1061.933594 444.492188 1066.710938 C 444.332031 1071.488281 443.78125 1076.21875 442.832031 1080.902344 C 441.886719 1085.585938 440.558594 1090.160156 438.851562 1094.625 C 437.144531 1099.085938 435.082031 1103.378906 432.660156 1107.5 C 430.78125 1109.628906 428.644531 1111.449219 426.25 1112.96875 L 422.289062 1115.417969 C 419.753906 1116.75 417.113281 1117.816406 414.371094 1118.625 L 412.296875 1118.625 C 396.644531 1121.453125 371.191406 1112.214844 338.945312 1099.769531 L 329.519531 1095.996094 C 289.167969 1079.96875 242.027344 1061.492188 207.523438 1061.492188 C 205.582031 1061.296875 203.636719 1061.222656 201.6875 1061.273438 C 199.738281 1061.324219 197.800781 1061.496094 195.871094 1061.796875 C 193.945312 1062.09375 192.042969 1062.511719 190.167969 1063.050781 C 188.292969 1063.589844 186.460938 1064.246094 184.667969 1065.015625 C 182.878906 1065.789062 181.144531 1066.671875 179.464844 1067.664062 C 177.785156 1068.660156 176.175781 1069.753906 174.636719 1070.953125 C 173.097656 1072.148438 171.640625 1073.441406 170.265625 1074.824219 C 168.890625 1076.207031 167.605469 1077.671875 166.417969 1079.214844 C 141.152344 1116.925781 197.71875 1176.132812 243.347656 1224.027344 C 271.445312 1253.628906 293.503906 1276.824219 295.957031 1294.171875 C 300.292969 1326.226562 266.730469 1338.480469 237.125 1349.417969 C 229.488281 1351.4375 222.144531 1354.226562 215.089844 1357.785156 C 208.039062 1361.34375 201.429688 1365.59375 195.265625 1370.535156 C 190.742188 1375.816406 190.929688 1379.398438 191.871094 1382.039062 C 196.019531 1396.554688 229.585938 1428.421875 407.015625 1479.898438 C 426.671875 1485.597656 446.597656 1490.125 466.789062 1493.472656 C 471.3125 1494.160156 475.859375 1494.6875 480.421875 1495.058594 C 484.984375 1495.429688 489.554688 1495.636719 494.132812 1495.6875 C 498.710938 1495.738281 503.285156 1495.628906 507.855469 1495.363281 C 512.425781 1495.09375 516.980469 1494.667969 521.523438 1494.082031 C 526.0625 1493.492188 530.578125 1492.75 535.066406 1491.847656 C 539.554688 1490.949219 544.007812 1489.890625 548.421875 1488.679688 C 552.835938 1487.46875 557.203125 1486.101562 561.523438 1484.585938 C 565.84375 1483.070312 570.105469 1481.40625 574.308594 1479.589844 C 578.511719 1477.777344 582.648438 1475.820312 586.714844 1473.714844 C 590.78125 1471.613281 594.769531 1469.371094 598.679688 1466.992188 C 602.589844 1464.609375 606.414062 1462.097656 610.148438 1459.449219 C 613.882812 1456.800781 617.523438 1454.027344 621.0625 1451.125 C 624.605469 1448.222656 628.042969 1445.203125 631.371094 1442.0625 C 634.703125 1438.921875 637.917969 1435.667969 641.023438 1432.300781 C 644.128906 1428.9375 647.109375 1425.46875 649.972656 1421.894531 C 652.832031 1418.320312 655.566406 1414.652344 658.171875 1410.886719 C 666.40625 1398.390625 673.132812 1385.128906 678.347656 1371.101562 L 682.121094 1361.863281 C 682.121094 1358.65625 683.816406 1355.074219 684.757812 1351.867188 C 686.449219 1345.558594 687.816406 1339.179688 688.859375 1332.730469 C 689.902344 1326.285156 690.621094 1319.800781 691.007812 1313.28125 C 691.394531 1306.761719 691.453125 1300.238281 691.183594 1293.710938 C 690.910156 1287.183594 690.308594 1280.6875 689.378906 1274.222656 C 688.449219 1267.757812 687.195312 1261.355469 685.621094 1255.015625 C 684.042969 1248.679688 682.148438 1242.4375 679.941406 1236.289062 C 677.730469 1230.140625 675.21875 1224.121094 672.398438 1218.230469 C 669.582031 1212.335938 666.472656 1206.601562 663.074219 1201.023438 C 652.269531 1183.878906 640.515625 1167.414062 627.816406 1151.621094 Z M 627.816406 1151.621094 " fill-opacity="1" fill-rule="nonzero"/><path fill="#6cfe12" d="M 1342.066406 1138.609375 C 1334.175781 1139.371094 1326.445312 1140.941406 1318.886719 1143.324219 C 1311.324219 1145.707031 1304.089844 1148.847656 1297.191406 1152.753906 L 1276.636719 1161.613281 C 1254.011719 1170.289062 1231.382812 1174.4375 1216.675781 1154.449219 C 1213.15625 1149.148438 1210.832031 1143.367188 1209.699219 1137.101562 C 1207.085938 1122.195312 1205.703125 1107.171875 1205.550781 1092.039062 C 1205.550781 1084.308594 1205.550781 1076.199219 1205.550781 1067.527344 C 1205.550781 1012.65625 1203.667969 946.660156 1177.832031 920.828125 C 1174.511719 917.398438 1170.679688 914.695312 1166.332031 912.722656 C 1163.957031 911.675781 1161.503906 910.859375 1158.976562 910.269531 L 1156.148438 910.269531 C 1152.945312 909.894531 1149.746094 909.933594 1146.554688 910.378906 C 1143.359375 910.828125 1140.273438 911.671875 1137.292969 912.910156 C 1115.042969 921.960938 1095.625 950.621094 1078.652344 984.183594 L 1070.546875 1000.589844 C 1067.527344 1007 1064.699219 1013.222656 1061.871094 1019.445312 C 1059.042969 1025.664062 1056.59375 1030.945312 1054.140625 1036.601562 C 1037.546875 1074.3125 1024.539062 1103.164062 1009.453125 1112.023438 C 981.546875 1128.429688 957.222656 1102.03125 935.914062 1078.652344 C 931.109375 1072.371094 925.703125 1066.65625 919.699219 1061.507812 C 913.695312 1056.363281 907.222656 1051.894531 900.277344 1048.105469 C 898.457031 1047.414062 896.570312 1047.035156 894.621094 1046.972656 C 893.480469 1046.945312 892.371094 1047.125 891.296875 1047.515625 C 890.222656 1047.90625 889.257812 1048.480469 888.398438 1049.234375 C 876.710938 1058.664062 859.929688 1101.84375 880.101562 1285.683594 C 882.273438 1306.003906 885.667969 1326.117188 890.285156 1346.023438 C 892.859375 1356.539062 896.25 1366.785156 900.46875 1376.757812 C 901.789062 1379.585938 903.105469 1382.414062 904.617188 1385.242188 C 906.125 1388.070312 907.066406 1390.898438 908.574219 1393.726562 C 910.496094 1397.296875 912.527344 1400.800781 914.667969 1404.242188 C 916.808594 1407.683594 919.054688 1411.054688 921.410156 1414.351562 C 923.761719 1417.652344 926.21875 1420.875 928.773438 1424.019531 C 931.328125 1427.164062 933.984375 1430.226562 936.730469 1433.203125 C 939.480469 1436.183594 942.320312 1439.070312 945.25 1441.871094 C 948.183594 1444.667969 951.199219 1447.371094 954.300781 1449.980469 C 957.402344 1452.589844 960.582031 1455.097656 963.839844 1457.507812 C 967.097656 1459.917969 970.429688 1462.222656 973.835938 1464.421875 C 977.238281 1466.621094 980.710938 1468.710938 984.246094 1470.691406 C 987.78125 1472.671875 991.375 1474.539062 995.03125 1476.292969 C 998.683594 1478.046875 1002.386719 1479.683594 1006.144531 1481.203125 C 1009.902344 1482.726562 1013.703125 1484.125 1017.546875 1485.410156 C 1021.390625 1486.691406 1025.273438 1487.847656 1029.191406 1488.886719 C 1033.109375 1489.921875 1037.054688 1490.835938 1041.03125 1491.625 C 1045.003906 1492.414062 1049 1493.078125 1053.019531 1493.613281 C 1057.035156 1494.152344 1061.066406 1494.5625 1065.109375 1494.84375 C 1069.152344 1495.128906 1073.199219 1495.28125 1077.25 1495.3125 C 1081.304688 1495.339844 1085.355469 1495.242188 1089.398438 1495.015625 C 1093.445312 1494.789062 1097.480469 1494.433594 1101.503906 1493.953125 C 1105.53125 1493.472656 1109.535156 1492.867188 1113.519531 1492.132812 C 1117.507812 1491.398438 1121.464844 1490.542969 1125.398438 1489.558594 C 1129.328125 1488.578125 1133.226562 1487.472656 1137.089844 1486.246094 C 1140.953125 1485.015625 1144.773438 1483.667969 1148.550781 1482.199219 C 1152.328125 1480.734375 1156.054688 1479.148438 1159.730469 1477.445312 C 1163.410156 1475.742188 1167.03125 1473.925781 1170.59375 1471.996094 C 1174.15625 1470.0625 1177.65625 1468.023438 1181.089844 1465.871094 C 1184.523438 1463.71875 1187.886719 1461.464844 1191.179688 1459.101562 C 1194.472656 1456.738281 1197.6875 1454.273438 1200.824219 1451.707031 C 1203.964844 1449.140625 1207.015625 1446.480469 1209.988281 1443.722656 C 1212.957031 1440.964844 1215.835938 1438.117188 1218.628906 1435.175781 C 1221.417969 1432.238281 1224.113281 1429.214844 1226.714844 1426.105469 C 1229.3125 1422.996094 1231.8125 1419.808594 1234.210938 1416.542969 C 1246.34375 1400.035156 1257.46875 1382.878906 1267.585938 1365.066406 C 1358.09375 1203.851562 1359.789062 1157.65625 1352.8125 1144.457031 C 1352.285156 1143.511719 1351.632812 1142.660156 1350.863281 1141.902344 C 1350.09375 1141.140625 1349.234375 1140.503906 1348.28125 1139.984375 C 1347.332031 1139.46875 1346.328125 1139.09375 1345.269531 1138.859375 C 1344.214844 1138.625 1343.144531 1138.542969 1342.066406 1138.609375 Z M 1342.066406 1138.609375 " fill-opacity="1" fill-rule="nonzero"/></svg>