<svg xmlns="http://www.w3.org/2000/svg" xmlns:xlink="http://www.w3.org/1999/xlink" width="2000" zoomAndPan="magnify" viewBox="0 0 1500 1499.999933" height="2000" preserveAspectRatio="xMidYMid meet" version="1.0"><path fill="#6cfe12" d="M 432.421875 798.046875 C 419.53125 798.046875 408.984375 808.59375 408.984375 821.484375 C 408.984375 834.375 419.53125 844.921875 432.421875 844.921875 L 509.765625 844.921875 C 510.9375 875.390625 516.796875 904.6875 526.171875 931.640625 L 503.90625 931.640625 C 498.046875 931.640625 492.1875 933.984375 487.5 938.671875 L 427.734375 998.4375 C 418.359375 1007.8125 418.359375 1021.875 427.734375 1031.25 C 432.421875 1035.9375 438.28125 1038.28125 444.140625 1038.28125 C 450 1038.28125 455.859375 1035.9375 460.546875 1031.25 L 513.28125 978.515625 L 547.265625 978.515625 C 590.625 1051.171875 664.453125 1099.21875 747.65625 1099.21875 C 832.03125 1099.21875 905.859375 1051.171875 948.046875 978.515625 L 984.375 978.515625 L 1037.109375 1031.25 C 1041.796875 1035.9375 1047.65625 1038.28125 1053.515625 1038.28125 C 1059.375 1038.28125 1065.234375 1035.9375 1069.921875 1031.25 C 1079.296875 1021.875 1079.296875 1007.8125 1069.921875 998.4375 L 1010.15625 938.671875 C 1005.46875 933.984375 999.609375 931.640625 993.75 931.640625 L 970.3125 931.640625 C 979.6875 904.6875 985.546875 875.390625 986.71875 844.921875 L 1065.234375 844.921875 C 1078.125 844.921875 1088.671875 834.375 1088.671875 821.484375 C 1088.671875 808.59375 1078.125 798.046875 1065.234375 798.046875 L 984.375 798.046875 C 980.859375 764.0625 970.3125 732.421875 956.25 704.296875 L 992.578125 704.296875 C 998.4375 704.296875 1004.296875 701.953125 1008.984375 697.265625 L 1068.75 637.5 C 1078.125 628.125 1078.125 614.0625 1068.75 604.6875 C 1059.375 595.3125 1045.3125 595.3125 1035.9375 604.6875 L 983.203125 657.421875 L 926.953125 657.421875 C 909.375 635.15625 888.28125 615.234375 864.84375 601.171875 L 864.84375 557.8125 C 864.84375 525 846.09375 495.703125 820.3125 480.46875 C 826.171875 460.546875 843.75 445.3125 864.84375 445.3125 C 877.734375 445.3125 888.28125 434.765625 888.28125 421.875 C 888.28125 408.984375 877.734375 398.4375 864.84375 398.4375 C 821.484375 398.4375 785.15625 428.90625 774.609375 468.75 L 721.875 468.75 C 711.328125 428.90625 675 398.4375 631.640625 398.4375 C 618.75 398.4375 608.203125 408.984375 608.203125 421.875 C 608.203125 434.765625 618.75 445.3125 631.640625 445.3125 C 652.734375 445.3125 671.484375 460.546875 676.171875 480.46875 C 649.21875 495.703125 631.640625 523.828125 631.640625 557.8125 L 631.640625 601.171875 C 608.203125 616.40625 587.109375 635.15625 569.53125 657.421875 L 514.453125 657.421875 L 461.71875 604.6875 C 452.34375 595.3125 438.28125 595.3125 428.90625 604.6875 C 419.53125 614.0625 419.53125 628.125 428.90625 637.5 L 488.671875 697.265625 C 493.359375 701.953125 499.21875 704.296875 505.078125 704.296875 L 540.234375 704.296875 C 526.171875 732.421875 516.796875 764.0625 512.109375 798.046875 Z M 720.703125 516.796875 L 779.296875 516.796875 C 801.5625 516.796875 820.3125 535.546875 820.3125 557.8125 L 820.3125 587.109375 L 679.6875 587.109375 L 679.6875 557.8125 C 678.515625 535.546875 697.265625 516.796875 720.703125 516.796875 Z M 667.96875 633.984375 L 829.6875 633.984375 C 895.3125 669.140625 942.1875 745.3125 942.1875 833.203125 C 942.1875 945.703125 868.359375 1038.28125 773.4375 1051.171875 L 773.4375 833.203125 C 773.4375 820.3125 762.890625 809.765625 750 809.765625 C 737.109375 809.765625 726.5625 820.3125 726.5625 833.203125 L 726.5625 1051.171875 C 631.640625 1038.28125 557.8125 945.703125 557.8125 833.203125 C 556.640625 745.3125 602.34375 669.140625 667.96875 633.984375 Z M 667.96875 633.984375 " fill-opacity="1" fill-rule="nonzero"/><path fill="#6cfe12" d="M 1476.5625 726.5625 L 1335.9375 726.5625 C 1323.046875 726.5625 1312.5 737.109375 1312.5 750 C 1312.5 762.890625 1323.046875 773.4375 1335.9375 773.4375 L 1476.5625 773.4375 C 1489.453125 773.4375 1500 762.890625 1500 750 C 1500 737.109375 1489.453125 726.5625 1476.5625 726.5625 Z M 1476.5625 726.5625 " fill-opacity="1" fill-rule="nonzero"/><path fill="#6cfe12" d="M 23.4375 773.4375 L 164.0625 773.4375 C 176.953125 773.4375 187.5 762.890625 187.5 750 C 187.5 737.109375 176.953125 726.5625 164.0625 726.5625 L 23.4375 726.5625 C 10.546875 726.5625 0 737.109375 0 750 C 0 762.890625 10.546875 773.4375 23.4375 773.4375 Z M 23.4375 773.4375 " fill-opacity="1" fill-rule="nonzero"/><path fill="#6cfe12" d="M 679.6875 120.703125 L 679.6875 73.828125 C 360.9375 106.640625 106.640625 360.9375 73.828125 679.6875 L 120.703125 679.6875 C 153.515625 386.71875 386.71875 153.515625 679.6875 120.703125 Z M 679.6875 120.703125 " fill-opacity="1" fill-rule="nonzero"/><path fill="#6cfe12" d="M 1379.296875 679.6875 L 1426.171875 679.6875 C 1393.359375 360.9375 1139.0625 106.640625 820.3125 73.828125 L 820.3125 120.703125 C 1113.28125 153.515625 1346.484375 386.71875 1379.296875 679.6875 Z M 1379.296875 679.6875 " fill-opacity="1" fill-rule="nonzero"/><path fill="#6cfe12" d="M 750 187.5 C 762.890625 187.5 773.4375 176.953125 773.4375 164.0625 L 773.4375 23.4375 C 773.4375 10.546875 762.890625 0 750 0 C 737.109375 0 726.5625 10.546875 726.5625 23.4375 L 726.5625 164.0625 C 726.5625 176.953125 737.109375 187.5 750 187.5 Z M 750 187.5 " fill-opacity="1" fill-rule="nonzero"/><path fill="#6cfe12" d="M 73.828125 820.3125 C 106.640625 1139.0625 360.9375 1393.359375 679.6875 1426.171875 L 679.6875 1379.296875 C 386.71875 1346.484375 153.515625 1113.28125 120.703125 820.3125 Z M 73.828125 820.3125 " fill-opacity="1" fill-rule="nonzero"/><path fill="#6cfe12" d="M 1379.296875 820.3125 C 1346.484375 1113.28125 1113.28125 1346.484375 820.3125 1379.296875 L 820.3125 1426.171875 C 1139.0625 1393.359375 1393.359375 1139.0625 1426.171875 820.3125 Z M 1379.296875 820.3125 " fill-opacity="1" fill-rule="nonzero"/><path fill="#6cfe12" d="M 726.5625 1476.5625 C 726.5625 1489.453125 737.109375 1500 750 1500 C 762.890625 1500 773.4375 1489.453125 773.4375 1476.5625 L 773.4375 1335.9375 C 773.4375 1323.046875 762.890625 1312.5 750 1312.5 C 737.109375 1312.5 726.5625 1323.046875 726.5625 1335.9375 Z M 726.5625 1476.5625 " fill-opacity="1" fill-rule="nonzero"/><path fill="#6cfe12" d="M 369.140625 369.140625 C 363.28125 375 358.59375 379.6875 352.734375 385.546875 C 344.53125 394.921875 344.53125 410.15625 353.90625 418.359375 C 358.59375 423.046875 364.453125 424.21875 370.3125 424.21875 C 376.171875 424.21875 383.203125 421.875 387.890625 417.1875 C 392.578125 412.5 397.265625 406.640625 401.953125 401.953125 C 401.953125 401.953125 403.125 400.78125 403.125 400.78125 C 412.5 391.40625 411.328125 377.34375 401.953125 367.96875 C 392.578125 359.765625 378.515625 359.765625 369.140625 369.140625 Z M 369.140625 369.140625 " fill-opacity="1" fill-rule="nonzero"/><path fill="#6cfe12" d="M 249.609375 949.21875 C 253.125 958.59375 262.5 964.453125 271.875 964.453125 C 274.21875 964.453125 277.734375 964.453125 280.078125 963.28125 C 291.796875 958.59375 297.65625 944.53125 292.96875 932.8125 C 290.625 925.78125 287.109375 918.75 284.765625 911.71875 C 280.078125 900 267.1875 892.96875 255.46875 897.65625 C 243.75 902.34375 236.71875 915.234375 241.40625 926.953125 C 243.75 933.984375 246.09375 942.1875 249.609375 949.21875 Z M 249.609375 949.21875 " fill-opacity="1" fill-rule="nonzero"/><path fill="#6cfe12" d="M 401.953125 1098.046875 C 391.40625 1087.5 377.34375 1087.5 367.96875 1096.875 C 358.59375 1106.25 358.59375 1120.3125 367.96875 1129.6875 L 369.140625 1130.859375 C 375 1136.71875 380.859375 1142.578125 386.71875 1147.265625 C 391.40625 1151.953125 397.265625 1153.125 403.125 1153.125 C 408.984375 1153.125 416.015625 1150.78125 420.703125 1146.09375 C 428.90625 1136.71875 428.90625 1121.484375 419.53125 1113.28125 C 412.5 1108.59375 406.640625 1102.734375 401.953125 1098.046875 Z M 401.953125 1098.046875 " fill-opacity="1" fill-rule="nonzero"/><path fill="#6cfe12" d="M 507.421875 1177.734375 C 501.5625 1174.21875 494.53125 1170.703125 488.671875 1166.015625 C 478.125 1158.984375 462.890625 1162.5 455.859375 1173.046875 C 448.828125 1183.59375 452.34375 1198.828125 462.890625 1205.859375 C 469.921875 1210.546875 476.953125 1214.0625 483.984375 1218.75 C 487.5 1221.09375 492.1875 1222.265625 495.703125 1222.265625 C 503.90625 1222.265625 512.109375 1217.578125 515.625 1210.546875 C 522.65625 1198.828125 517.96875 1184.765625 507.421875 1177.734375 Z M 507.421875 1177.734375 " fill-opacity="1" fill-rule="nonzero"/><path fill="#6cfe12" d="M 263.671875 826.171875 C 262.5 819.140625 261.328125 812.109375 261.328125 803.90625 C 260.15625 791.015625 248.4375 781.640625 235.546875 782.8125 C 222.65625 783.984375 213.28125 795.703125 214.453125 808.59375 C 215.625 816.796875 216.796875 825 217.96875 832.03125 C 220.3125 843.75 229.6875 851.953125 241.40625 851.953125 C 242.578125 851.953125 243.75 851.953125 244.921875 851.953125 C 256.640625 850.78125 266.015625 839.0625 263.671875 826.171875 Z M 263.671875 826.171875 " fill-opacity="1" fill-rule="nonzero"/><path fill="#6cfe12" d="M 1030.078125 1154.296875 C 1024.21875 1158.984375 1018.359375 1162.5 1011.328125 1166.015625 C 1000.78125 1173.046875 997.265625 1187.109375 1004.296875 1198.828125 C 1008.984375 1205.859375 1016.015625 1209.375 1024.21875 1209.375 C 1028.90625 1209.375 1032.421875 1208.203125 1037.109375 1205.859375 C 1044.140625 1201.171875 1051.171875 1197.65625 1057.03125 1192.96875 C 1067.578125 1185.9375 1069.921875 1170.703125 1062.890625 1160.15625 C 1054.6875 1149.609375 1040.625 1147.265625 1030.078125 1154.296875 Z M 1030.078125 1154.296875 " fill-opacity="1" fill-rule="nonzero"/><path fill="#6cfe12" d="M 932.8125 1207.03125 C 925.78125 1209.375 918.75 1212.890625 911.71875 1215.234375 C 900 1219.921875 892.96875 1232.8125 897.65625 1244.53125 C 901.171875 1253.90625 910.546875 1259.765625 919.921875 1259.765625 C 922.265625 1259.765625 924.609375 1259.765625 928.125 1258.59375 C 935.15625 1256.25 943.359375 1252.734375 950.390625 1250.390625 C 962.109375 1245.703125 967.96875 1231.640625 963.28125 1219.921875 C 958.59375 1208.203125 945.703125 1202.34375 932.8125 1207.03125 Z M 932.8125 1207.03125 " fill-opacity="1" fill-rule="nonzero"/><path fill="#6cfe12" d="M 717.1875 1241.015625 C 710.15625 1241.015625 701.953125 1239.84375 694.921875 1238.671875 C 682.03125 1237.5 670.3125 1246.875 669.140625 1259.765625 C 667.96875 1272.65625 677.34375 1284.375 690.234375 1285.546875 C 698.4375 1286.71875 706.640625 1286.71875 714.84375 1287.890625 C 714.84375 1287.890625 716.015625 1287.890625 716.015625 1287.890625 C 727.734375 1287.890625 738.28125 1278.515625 739.453125 1265.625 C 739.453125 1252.734375 730.078125 1242.1875 717.1875 1241.015625 Z M 717.1875 1241.015625 " fill-opacity="1" fill-rule="nonzero"/><path fill="#6cfe12" d="M 1265.625 761.71875 C 1252.734375 760.546875 1241.015625 771.09375 1241.015625 783.984375 C 1241.015625 791.015625 1239.84375 799.21875 1238.671875 806.25 C 1237.5 819.140625 1246.875 830.859375 1259.765625 832.03125 C 1260.9375 832.03125 1262.109375 832.03125 1262.109375 832.03125 C 1273.828125 832.03125 1284.375 822.65625 1285.546875 810.9375 C 1286.71875 802.734375 1286.71875 794.53125 1287.890625 786.328125 C 1289.0625 773.4375 1278.515625 762.890625 1265.625 761.71875 Z M 1265.625 761.71875 " fill-opacity="1" fill-rule="nonzero"/><path fill="#6cfe12" d="M 761.71875 234.375 C 760.546875 247.265625 771.09375 258.984375 783.984375 258.984375 C 791.015625 258.984375 799.21875 260.15625 806.25 261.328125 C 807.421875 261.328125 808.59375 261.328125 808.59375 261.328125 C 820.3125 261.328125 830.859375 251.953125 832.03125 240.234375 C 833.203125 227.34375 823.828125 215.625 810.9375 214.453125 C 802.734375 213.28125 794.53125 213.28125 786.328125 212.109375 C 774.609375 210.9375 762.890625 221.484375 761.71875 234.375 Z M 761.71875 234.375 " fill-opacity="1" fill-rule="nonzero"/><path fill="#6cfe12" d="M 214.453125 687.890625 C 213.28125 696.09375 213.28125 704.296875 212.109375 712.5 C 210.9375 725.390625 221.484375 737.109375 234.375 737.109375 C 234.375 737.109375 235.546875 737.109375 235.546875 737.109375 C 247.265625 737.109375 257.8125 727.734375 258.984375 714.84375 C 258.984375 707.8125 260.15625 699.609375 261.328125 692.578125 C 262.5 679.6875 253.125 667.96875 240.234375 666.796875 C 227.34375 666.796875 215.625 675 214.453125 687.890625 Z M 214.453125 687.890625 " fill-opacity="1" fill-rule="nonzero"/><path fill="#6cfe12" d="M 326.953125 454.6875 C 316.40625 447.65625 301.171875 451.171875 294.140625 461.71875 C 289.453125 468.75 285.9375 475.78125 281.25 482.8125 C 275.390625 494.53125 278.90625 508.59375 289.453125 514.453125 C 292.96875 516.796875 297.65625 517.96875 301.171875 517.96875 C 309.375 517.96875 317.578125 513.28125 321.09375 506.25 C 324.609375 500.390625 328.125 493.359375 332.8125 487.5 C 341.015625 475.78125 337.5 461.71875 326.953125 454.6875 Z M 326.953125 454.6875 " fill-opacity="1" fill-rule="nonzero"/><path fill="#6cfe12" d="M 241.40625 570.703125 C 239.0625 577.734375 236.71875 585.9375 234.375 594.140625 C 230.859375 607.03125 237.890625 619.921875 249.609375 623.4375 C 251.953125 624.609375 254.296875 624.609375 256.640625 624.609375 C 267.1875 624.609375 276.5625 617.578125 278.90625 608.203125 C 281.25 601.171875 283.59375 594.140625 285.9375 587.109375 C 290.625 575.390625 283.59375 561.328125 271.875 556.640625 C 258.984375 551.953125 246.09375 558.984375 241.40625 570.703125 Z M 241.40625 570.703125 " fill-opacity="1" fill-rule="nonzero"/><path fill="#6cfe12" d="M 646.875 243.75 C 649.21875 255.46875 658.59375 263.671875 670.3125 263.671875 C 671.484375 263.671875 672.65625 263.671875 673.828125 263.671875 C 680.859375 262.5 687.890625 261.328125 696.09375 261.328125 C 708.984375 260.15625 718.359375 248.4375 717.1875 235.546875 C 716.015625 222.65625 704.296875 213.28125 691.40625 214.453125 C 683.203125 215.625 675 216.796875 667.96875 217.96875 C 653.90625 219.140625 644.53125 230.859375 646.875 243.75 Z M 646.875 243.75 " fill-opacity="1" fill-rule="nonzero"/><path fill="#6cfe12" d="M 332.8125 1010.15625 C 325.78125 999.609375 311.71875 996.09375 300 1003.125 C 289.453125 1010.15625 285.9375 1024.21875 292.96875 1035.9375 C 297.65625 1042.96875 301.171875 1050 305.859375 1055.859375 C 310.546875 1062.890625 317.578125 1066.40625 324.609375 1066.40625 C 329.296875 1066.40625 333.984375 1065.234375 337.5 1061.71875 C 348.046875 1054.6875 350.390625 1039.453125 343.359375 1028.90625 C 339.84375 1023.046875 336.328125 1017.1875 332.8125 1010.15625 Z M 332.8125 1010.15625 " fill-opacity="1" fill-rule="nonzero"/><path fill="#6cfe12" d="M 1262.109375 716.015625 C 1263.28125 716.015625 1263.28125 716.015625 1264.453125 716.015625 C 1277.34375 714.84375 1286.71875 703.125 1285.546875 690.234375 C 1284.375 682.03125 1283.203125 673.828125 1282.03125 666.796875 C 1279.6875 653.90625 1267.96875 645.703125 1255.078125 646.875 C 1242.1875 649.21875 1233.984375 660.9375 1235.15625 673.828125 C 1236.328125 680.859375 1237.5 687.890625 1237.5 696.09375 C 1241.015625 707.8125 1250.390625 716.015625 1262.109375 716.015625 Z M 1262.109375 716.015625 " fill-opacity="1" fill-rule="nonzero"/><path fill="#6cfe12" d="M 1236.328125 944.53125 C 1245.703125 944.53125 1255.078125 938.671875 1258.59375 929.296875 C 1260.9375 921.09375 1263.28125 914.0625 1265.625 905.859375 C 1269.140625 892.96875 1262.109375 880.078125 1250.390625 876.5625 C 1237.5 873.046875 1224.609375 880.078125 1221.09375 891.796875 C 1218.75 898.828125 1216.40625 905.859375 1214.0625 912.890625 C 1209.375 924.609375 1216.40625 938.671875 1228.125 942.1875 C 1231.640625 943.359375 1233.984375 944.53125 1236.328125 944.53125 Z M 1236.328125 944.53125 " fill-opacity="1" fill-rule="nonzero"/><path fill="#6cfe12" d="M 1209.375 984.375 C 1197.65625 978.515625 1183.59375 982.03125 1177.734375 993.75 C 1174.21875 999.609375 1170.703125 1006.640625 1166.015625 1012.5 C 1158.984375 1023.046875 1162.5 1038.28125 1173.046875 1045.3125 C 1176.5625 1047.65625 1181.25 1048.828125 1185.9375 1048.828125 C 1194.140625 1048.828125 1201.171875 1045.3125 1205.859375 1038.28125 C 1210.546875 1031.25 1214.0625 1024.21875 1218.75 1017.1875 C 1224.609375 1005.46875 1221.09375 991.40625 1209.375 984.375 Z M 1209.375 984.375 " fill-opacity="1" fill-rule="nonzero"/><path fill="#6cfe12" d="M 1250.390625 549.609375 C 1245.703125 537.890625 1231.640625 532.03125 1219.921875 536.71875 C 1208.203125 541.40625 1202.34375 555.46875 1207.03125 567.1875 C 1209.375 574.21875 1212.890625 581.25 1215.234375 588.28125 C 1218.75 597.65625 1228.125 603.515625 1237.5 603.515625 C 1239.84375 603.515625 1242.1875 603.515625 1245.703125 602.34375 C 1257.421875 597.65625 1264.453125 584.765625 1259.765625 573.046875 C 1256.25 564.84375 1253.90625 557.8125 1250.390625 549.609375 Z M 1250.390625 549.609375 " fill-opacity="1" fill-rule="nonzero"/><path fill="#6cfe12" d="M 853.125 1256.25 C 850.78125 1243.359375 839.0625 1235.15625 826.171875 1236.328125 C 819.140625 1237.5 812.109375 1238.671875 803.90625 1239.84375 C 791.015625 1241.015625 781.640625 1252.734375 782.8125 1265.625 C 783.984375 1277.34375 794.53125 1286.71875 806.25 1286.71875 C 807.421875 1286.71875 808.59375 1286.71875 808.59375 1286.71875 C 816.796875 1285.546875 825 1284.375 832.03125 1283.203125 C 847.265625 1280.859375 855.46875 1267.96875 853.125 1256.25 Z M 853.125 1256.25 " fill-opacity="1" fill-rule="nonzero"/><path fill="#6cfe12" d="M 993.75 322.265625 C 999.609375 325.78125 1006.640625 329.296875 1012.5 333.984375 C 1016.015625 336.328125 1020.703125 337.5 1025.390625 337.5 C 1033.59375 337.5 1040.625 333.984375 1045.3125 326.953125 C 1052.34375 316.40625 1048.828125 301.171875 1038.28125 294.140625 C 1031.25 289.453125 1024.21875 285.9375 1017.1875 281.25 C 1005.46875 275.390625 991.40625 278.90625 985.546875 289.453125 C 978.515625 301.171875 982.03125 315.234375 993.75 322.265625 Z M 993.75 322.265625 " fill-opacity="1" fill-rule="nonzero"/><path fill="#6cfe12" d="M 587.109375 1215.234375 C 575.390625 1210.546875 561.328125 1217.578125 557.8125 1229.296875 C 553.125 1241.015625 560.15625 1255.078125 571.875 1258.59375 C 580.078125 1260.9375 587.109375 1263.28125 595.3125 1265.625 C 597.65625 1266.796875 600 1266.796875 602.34375 1266.796875 C 612.890625 1266.796875 622.265625 1259.765625 624.609375 1250.390625 C 628.125 1237.5 621.09375 1224.609375 609.375 1221.09375 C 601.171875 1219.921875 594.140625 1217.578125 587.109375 1215.234375 Z M 587.109375 1215.234375 " fill-opacity="1" fill-rule="nonzero"/><path fill="#6cfe12" d="M 558.984375 294.140625 C 561.328125 294.140625 564.84375 294.140625 567.1875 292.96875 C 574.21875 290.625 581.25 287.109375 588.28125 284.765625 C 600 280.078125 607.03125 267.1875 602.34375 255.46875 C 597.65625 243.75 584.765625 236.71875 573.046875 241.40625 C 566.015625 243.75 557.8125 247.265625 550.78125 249.609375 C 539.0625 254.296875 533.203125 268.359375 537.890625 280.078125 C 540.234375 288.28125 549.609375 294.140625 558.984375 294.140625 Z M 558.984375 294.140625 " fill-opacity="1" fill-rule="nonzero"/><path fill="#6cfe12" d="M 891.796875 278.90625 C 898.828125 281.25 905.859375 283.59375 912.890625 285.9375 C 915.234375 287.109375 917.578125 287.109375 921.09375 287.109375 C 930.46875 287.109375 939.84375 281.25 943.359375 271.875 C 948.046875 260.15625 941.015625 246.09375 929.296875 242.578125 C 921.09375 240.234375 914.0625 237.890625 905.859375 235.546875 C 892.96875 232.03125 880.078125 239.0625 876.5625 250.78125 C 873.046875 262.5 880.078125 275.390625 891.796875 278.90625 Z M 891.796875 278.90625 " fill-opacity="1" fill-rule="nonzero"/><path fill="#6cfe12" d="M 457.03125 349.21875 C 461.71875 349.21875 466.40625 348.046875 469.921875 344.53125 C 475.78125 339.84375 481.640625 336.328125 488.671875 332.8125 C 499.21875 325.78125 502.734375 311.71875 495.703125 300 C 488.671875 289.453125 474.609375 285.9375 462.890625 292.96875 C 455.859375 297.65625 448.828125 301.171875 442.96875 305.859375 C 432.421875 312.890625 430.078125 328.125 437.109375 338.671875 C 442.96875 345.703125 450 349.21875 457.03125 349.21875 Z M 457.03125 349.21875 " fill-opacity="1" fill-rule="nonzero"/><path fill="#6cfe12" d="M 1113.28125 1082.8125 C 1108.59375 1087.5 1103.90625 1093.359375 1098.046875 1098.046875 C 1088.671875 1107.421875 1088.671875 1121.484375 1098.046875 1130.859375 C 1102.734375 1135.546875 1108.59375 1137.890625 1114.453125 1137.890625 C 1120.3125 1137.890625 1126.171875 1135.546875 1130.859375 1130.859375 C 1136.71875 1125 1141.40625 1119.140625 1147.265625 1113.28125 C 1155.46875 1103.90625 1155.46875 1088.671875 1146.09375 1080.46875 C 1136.71875 1072.265625 1121.484375 1072.265625 1113.28125 1082.8125 Z M 1113.28125 1082.8125 " fill-opacity="1" fill-rule="nonzero"/><path fill="#6cfe12" d="M 1114.453125 352.734375 C 1105.078125 344.53125 1089.84375 344.53125 1081.640625 353.90625 C 1073.4375 363.28125 1073.4375 378.515625 1082.8125 386.71875 C 1087.5 391.40625 1093.359375 396.09375 1098.046875 400.78125 C 1098.046875 400.78125 1099.21875 401.953125 1099.21875 401.953125 C 1103.90625 406.640625 1109.765625 408.984375 1115.625 408.984375 C 1121.484375 408.984375 1127.34375 406.640625 1132.03125 401.953125 C 1141.40625 392.578125 1140.234375 377.34375 1132.03125 369.140625 C 1126.171875 363.28125 1120.3125 357.421875 1114.453125 352.734375 Z M 1114.453125 352.734375 " fill-opacity="1" fill-rule="nonzero"/><path fill="#6cfe12" d="M 1194.140625 442.96875 C 1187.109375 432.421875 1171.875 430.078125 1161.328125 437.109375 C 1150.78125 444.140625 1148.4375 459.375 1155.46875 469.921875 C 1160.15625 475.78125 1163.671875 481.640625 1167.1875 488.671875 C 1171.875 495.703125 1178.90625 499.21875 1187.109375 499.21875 C 1191.796875 499.21875 1195.3125 498.046875 1200 495.703125 C 1210.546875 488.671875 1214.0625 474.609375 1207.03125 462.890625 C 1202.34375 457.03125 1197.65625 450 1194.140625 442.96875 Z M 1194.140625 442.96875 " fill-opacity="1" fill-rule="nonzero"/></svg>