<svg xmlns="http://www.w3.org/2000/svg" xmlns:xlink="http://www.w3.org/1999/xlink" width="2000" zoomAndPan="magnify" viewBox="0 0 1500 1499.999933" height="2000" preserveAspectRatio="xMidYMid meet" version="1.0"><path fill="#6cfe12" d="M 1335.332031 281.332031 C 1335.332031 281.332031 1335.332031 281.167969 1335.332031 281.332031 C 1192 102.5 978.667969 0 750 0 C 521.332031 0 308 102.5 164.667969 281.167969 C 57 415.667969 0 577.667969 0 750 C 0 922.332031 57 1084.332031 164.667969 1218.832031 C 308 1397.5 521.332031 1500 750 1500 C 978.667969 1500 1192 1397.5 1335.332031 1218.832031 C 1443 1084.332031 1500 922.332031 1500 750 C 1500 577.667969 1443 415.667969 1335.332031 281.332031 Z M 1300.667969 1154.5 C 1241.667969 1122.167969 1172.5 1095.832031 1096.667969 1075.832031 C 1118 987.167969 1130.832031 888.332031 1133 783.332031 L 1432.5 783.332031 C 1426.167969 918.332031 1381 1045.667969 1300.667969 1154.5 Z M 199.332031 1154.5 C 119 1045.667969 73.832031 918.332031 67.5 783.332031 L 367 783.332031 C 369.167969 888.332031 382 987.167969 403.332031 1075.832031 C 327.5 1095.832031 258.5 1122.167969 199.332031 1154.5 Z M 199.332031 345.5 C 258.332031 377.832031 327.5 404.167969 403.332031 424.167969 C 382 512.832031 369.332031 611.667969 367 716.667969 L 67.5 716.667969 C 73.832031 581.667969 119 454.332031 199.332031 345.5 Z M 783.332031 466.167969 C 869.332031 464.332031 952.832031 455.167969 1030.667969 439.332031 C 1051.167969 523.667969 1063.832031 617.667969 1066.167969 716.5 L 783.332031 716.5 Z M 783.332031 399.5 L 783.332031 70.667969 C 877.832031 93.167969 961.5 209.832031 1013 375 C 940.832031 389.332031 863.332031 397.667969 783.332031 399.5 Z M 716.667969 70.667969 L 716.667969 399.5 C 636.667969 397.667969 559.167969 389.332031 487 375 C 538.5 210 622.167969 93.167969 716.667969 70.667969 Z M 716.667969 466.167969 L 716.667969 716.667969 L 433.667969 716.667969 C 436 617.832031 448.667969 523.832031 469.167969 439.5 C 547.167969 455.167969 630.667969 464.332031 716.667969 466.167969 Z M 433.667969 783.332031 L 716.667969 783.332031 L 716.667969 1033.832031 C 630.667969 1035.667969 547.167969 1044.832031 469.332031 1060.667969 C 448.667969 976.167969 436 882.167969 433.667969 783.332031 Z M 716.667969 1100.5 L 716.667969 1429.332031 C 622.167969 1406.832031 538.5 1290.167969 487 1124.832031 C 559.167969 1110.667969 636.667969 1102.332031 716.667969 1100.5 Z M 783.332031 1429.332031 L 783.332031 1100.5 C 863.332031 1102.332031 940.832031 1110.667969 1013 1125 C 961.5 1290 877.832031 1406.832031 783.332031 1429.332031 Z M 783.332031 1033.832031 L 783.332031 783.332031 L 1066.332031 783.332031 C 1064 882.167969 1051.332031 976.167969 1030.832031 1060.5 C 952.832031 1044.832031 869.332031 1035.667969 783.332031 1033.832031 Z M 1133 716.667969 C 1130.832031 611.667969 1118 512.832031 1096.667969 424.167969 C 1172.5 404.332031 1241.667969 377.832031 1300.667969 345.5 C 1381 454.332031 1426.167969 581.667969 1432.5 716.667969 Z M 1257.667969 292.832031 C 1205.5 320.167969 1145.167969 342.667969 1079.167969 360 C 1044.832031 247.832031 996 155.832031 937.332031 92.667969 C 1059.667969 127.5 1170.667969 196.167969 1257.667969 292.832031 Z M 562.832031 92.667969 C 504.167969 155.667969 455.332031 247.832031 421 360 C 354.832031 342.667969 294.667969 320.167969 242.5 292.832031 C 329.332031 196.167969 440.332031 127.5 562.832031 92.667969 Z M 242.332031 1207.167969 C 294.5 1179.832031 354.832031 1157.332031 420.832031 1140 C 455.167969 1252.167969 504 1344.332031 562.667969 1407.332031 C 440.332031 1372.5 329.332031 1303.832031 242.332031 1207.167969 Z M 937.167969 1407.332031 C 995.832031 1344.332031 1044.667969 1252.167969 1079 1140 C 1145.167969 1157.332031 1205.332031 1179.832031 1257.5 1207.167969 C 1170.667969 1303.832031 1059.667969 1372.5 937.167969 1407.332031 Z M 937.167969 1407.332031 " fill-opacity="1" fill-rule="nonzero"/></svg>