<svg xmlns="http://www.w3.org/2000/svg" xmlns:xlink="http://www.w3.org/1999/xlink" width="2000" zoomAndPan="magnify" viewBox="0 0 1500 1499.999933" height="2000" preserveAspectRatio="xMidYMid meet" version="1.0"><defs><clipPath id="8ae9e8cbae"><path d="M 237 102.1875 L 1264 102.1875 L 1264 1398 L 237 1398 Z M 237 102.1875 " clip-rule="nonzero"/></clipPath><clipPath id="233ff0c450"><path d="M 0 102.1875 L 404 102.1875 L 404 1398 L 0 1398 Z M 0 102.1875 " clip-rule="nonzero"/></clipPath><clipPath id="3c31938504"><path d="M 1096 102.1875 L 1500 102.1875 L 1500 1398 L 1096 1398 Z M 1096 102.1875 " clip-rule="nonzero"/></clipPath></defs><g clip-path="url(#8ae9e8cbae)"><path fill="#9d4dff" d="M 452.523438 102.1875 C 551.683594 102.1875 650.839844 102.1875 750 102.1875 C 849.160156 102.1875 948.316406 102.1875 1048.207031 102.1875 C 1070.808594 237.074219 1096.328125 393.832031 1126.949219 578.296875 C 1163.402344 798.484375 1207.878906 1066.066406 1263.292969 1397.8125 C 1091.953125 1397.8125 921.339844 1397.8125 750 1397.8125 C 579.390625 1397.8125 408.046875 1397.8125 237.4375 1397.8125 C 292.847656 1066.066406 337.324219 798.484375 373.78125 578.296875 C 404.402344 393.832031 430.652344 237.074219 453.253906 102.1875 Z M 452.523438 102.1875 " fill-opacity="1" fill-rule="evenodd"/></g><path fill="#ffffff" d="M 696.046875 1207.515625 C 731.773438 1207.515625 767.5 1207.515625 803.226562 1207.515625 C 801.765625 1117.835938 800.308594 1033.257812 798.851562 954.515625 C 766.039062 954.515625 733.230469 954.515625 701.148438 954.515625 C 699.691406 1033.988281 698.234375 1118.5625 696.773438 1207.515625 Z M 696.046875 1207.515625 " fill-opacity="1" fill-rule="evenodd"/><path fill="#ffffff" d="M 703.335938 822.546875 C 734.6875 822.546875 765.3125 822.546875 796.664062 822.546875 C 795.203125 754.738281 794.476562 690.578125 793.015625 630.0625 C 764.582031 630.0625 735.417969 630.0625 706.984375 630.0625 C 705.523438 690.578125 704.796875 755.46875 703.335938 822.546875 Z M 703.335938 822.546875 " fill-opacity="1" fill-rule="evenodd"/><path fill="#ffffff" d="M 709.171875 528.714844 C 736.875 528.714844 763.851562 528.714844 791.558594 528.714844 C 790.828125 475.492188 789.371094 425.183594 788.644531 377.0625 C 763.125 377.0625 737.605469 377.0625 712.085938 377.0625 C 711.355469 425.183594 709.898438 475.492188 709.171875 528.714844 Z M 709.171875 528.714844 " fill-opacity="1" fill-rule="evenodd"/><path fill="#ffffff" d="M 713.542969 296.128906 C 738.335938 296.128906 762.394531 296.128906 787.183594 296.128906 C 786.457031 253.84375 785.726562 213.011719 784.996094 173.640625 C 761.664062 173.640625 739.0625 173.640625 715.730469 173.640625 C 715.003906 213.011719 714.273438 253.113281 713.542969 296.128906 Z M 713.542969 296.128906 " fill-opacity="1" fill-rule="evenodd"/><g clip-path="url(#233ff0c450)"><path fill="#9d4dff" d="M 403.671875 102.1875 C 373.78125 102.1875 344.617188 102.1875 314.722656 102.1875 C 281.914062 237.074219 244 393.832031 199.523438 578.296875 C 146.296875 798.484375 80.679688 1066.066406 0.476562 1397.8125 C 51.515625 1397.8125 102.550781 1397.8125 153.589844 1397.8125 C 217.75 1066.066406 269.519531 798.484375 311.804688 578.296875 C 347.53125 393.832031 377.425781 237.074219 403.671875 102.1875 Z M 403.671875 102.1875 " fill-opacity="1" fill-rule="evenodd"/></g><g clip-path="url(#3c31938504)"><path fill="#9d4dff" d="M 1185.277344 102.1875 C 1155.382812 102.1875 1125.492188 102.1875 1096.328125 102.1875 C 1122.574219 237.074219 1152.46875 393.832031 1188.195312 578.296875 C 1230.480469 798.484375 1282.25 1066.066406 1346.410156 1397.8125 C 1397.449219 1397.8125 1448.484375 1397.8125 1499.523438 1397.8125 C 1419.320312 1066.066406 1353.703125 798.484375 1300.476562 578.296875 C 1256 393.832031 1217.359375 237.074219 1184.546875 102.1875 Z M 1185.277344 102.1875 " fill-opacity="1" fill-rule="evenodd"/></g></svg>