<svg xmlns="http://www.w3.org/2000/svg" xmlns:xlink="http://www.w3.org/1999/xlink" width="2000" zoomAndPan="magnify" viewBox="0 0 1500 1499.999933" height="2000" preserveAspectRatio="xMidYMid meet" version="1.0"><defs><clipPath id="dba17d41c8"><path d="M 11.25 637 L 1488.75 637 L 1488.75 964 L 11.25 964 Z M 11.25 637 " clip-rule="nonzero"/></clipPath></defs><path fill="#000000" d="M 580.089844 1216.96875 C 557.84375 1255.945312 471.027344 1385.347656 435.316406 1398.722656 C 394.550781 1414.007812 365.429688 1380.8125 377.878906 1336.234375 C 387.328125 1302.429688 486.945312 1191.113281 513.207031 1144.222656 C 545.335938 1086.871094 568.476562 1019.84375 586.011719 955.5625 C 598.550781 909.652344 594.074219 830.691406 647.609375 825.722656 C 721.773438 818.820312 683.984375 950.128906 673.582031 991.269531 C 654.140625 1068.179688 618.71875 1149.335938 580.089844 1216.96875 Z M 537.765625 385.160156 C 556.71875 371.667969 607.480469 351.328125 620.019531 334.832031 C 641.859375 306.085938 621.375 255.84375 585.695312 253.359375 C 538.601562 250.09375 413.273438 359.246094 380.972656 399.171875 C 222.820312 594.765625 311.460938 791.027344 199.1875 975.292969 C 175.726562 1013.804688 91.222656 1085.226562 151.402344 1124.75 C 178.558594 1142.574219 189.886719 1132.058594 211.234375 1113.394531 C 441.730469 911.648438 258.300781 584.367188 537.765625 385.191406 Z M 384.8125 1034.117188 C 362.335938 1039.460938 327.234375 1108.195312 309.523438 1130.988281 C 283.03125 1165.109375 210.601562 1213.53125 241.628906 1264.753906 C 277.828125 1324.5625 347.371094 1237.078125 372.679688 1205.644531 C 390.738281 1183.222656 440.835938 1113.683594 443.550781 1087.390625 C 447.277344 1051.105469 416.390625 1026.605469 384.785156 1034.117188 Z M 442.480469 686.324219 C 435.289062 729.140625 439.246094 768.578125 434.855469 808.996094 C 430.027344 853.546875 388.945312 962.351562 446.351562 976.535156 C 505.925781 991.269531 514.738281 908.699219 521.5 861.550781 C 538.199219 744.800781 515.894531 639.316406 613.515625 556.863281 C 688.230469 493.761719 797.179688 490.613281 872.84375 554.234375 C 902.835938 579.453125 956.226562 671.386719 997.65625 626.460938 C 1040.589844 579.917969 961.886719 497.75 927.652344 470.824219 C 741.792969 324.605469 483.015625 444.90625 442.480469 686.324219 Z M 190 649.777344 C 194.160156 606.785156 232.960938 505.867188 164.546875 502.777344 C 125.746094 501.015625 119.015625 535.742188 109.972656 568.707031 C 88.882812 645.617188 97.347656 715.9375 83.679688 790.128906 C 76.429688 829.421875 46.785156 874.636719 69.582031 910.261719 C 84.519531 933.605469 120.601562 930.253906 138.140625 911.878906 C 188.496094 859.09375 183.007812 721.714844 189.972656 649.804688 Z M 533.949219 179.339844 C 687.652344 118.550781 875.332031 120.632812 1021.171875 208.375 C 1045.671875 223.109375 1115.042969 283.261719 1129.082031 287.363281 C 1144.886719 292.015625 1172.910156 289.644531 1183.601562 275.230469 C 1222.691406 222.359375 1128.9375 163.132812 1095.105469 139.875 C 916.472656 17.144531 691.378906 0.847656 500.234375 81.800781 C 475.386719 92.320312 463.628906 123.289062 473.828125 150.101562 C 483.566406 175.699219 510.058594 188.816406 533.980469 179.339844 Z M 207.25 427.054688 C 261.042969 462.386719 310.1875 350.40625 345.003906 312.382812 C 355.402344 301.03125 369.761719 287.855469 384.84375 274.882812 C 388.195312 272.023438 397.730469 263.902344 408.160156 255.035156 C 427.976562 238.191406 432.3125 207.480469 418.097656 184.945312 C 402.8125 160.734375 372.074219 155.15625 350.433594 172.722656 C 336.625 183.902344 323.332031 194.855469 318.25 199.5625 C 293.835938 222.214844 270.867188 247.089844 249.691406 274.191406 C 224.46875 306.460938 156.398438 393.65625 207.277344 427.082031 Z M 992.136719 694.960938 C 985.347656 696.722656 979.425781 699.988281 974.746094 705.738281 C 955.097656 729.921875 954.722656 873.308594 949.234375 916.097656 C 934.902344 1027.585938 899.195312 1152.167969 854.328125 1253.34375 C 835.257812 1296.363281 767.710938 1397.859375 760.660156 1431.402344 C 752.28125 1471.328125 778.832031 1498.746094 814.628906 1490.109375 C 842.480469 1483.40625 884.574219 1402.21875 899.570312 1373.992188 C 975.929688 1230.203125 1029.667969 1051.566406 1047.636719 886.222656 C 1054.023438 827.574219 1081.960938 671.648438 992.109375 694.933594 Z M 685.773438 1224.597656 C 677.828125 1226.476562 670.722656 1231.734375 665.40625 1238.320312 C 643.074219 1287.089844 561.859375 1368.878906 548.972656 1415.769531 C 537.300781 1458.210938 583.671875 1499.527344 621.78125 1464.683594 C 642.035156 1446.164062 727.726562 1320.6875 738.703125 1294.195312 C 756.210938 1251.871094 726.308594 1215.003906 685.804688 1224.597656 Z M 1374.082031 532.851562 C 1363.042969 492.519531 1307.976562 345.320312 1273.078125 333.183594 C 1237.859375 320.933594 1208.1875 347.167969 1212.722656 386.519531 C 1285.355469 525.628906 1317.886719 653.996094 1311.039062 815.582031 C 1307.917969 889.429688 1288.246094 965.210938 1283.851562 1035.964844 C 1282.609375 1055.785156 1279.953125 1076.875 1291.507812 1092.910156 C 1307.917969 1115.648438 1339.929688 1116.226562 1358.449219 1096.347656 C 1366.511719 1087.710938 1372.40625 1070.144531 1375.292969 1058.097656 C 1411.582031 907.109375 1415.019531 682.367188 1374.082031 532.824219 Z M 1172.910156 875.761719 C 1149.304688 875.417969 1128.765625 893.445312 1124.316406 918.667969 C 1114.347656 975.148438 1097.589844 1039.664062 1097.242188 1083.605469 C 1097.128906 1098.632812 1099.699219 1115.707031 1110.359375 1126.28125 C 1152.601562 1168.257812 1182.90625 1116.804688 1193.539062 1074.707031 C 1205.039062 1029.148438 1214.226562 982.746094 1220.609375 936.261719 C 1224.945312 904.625 1202.320312 876.226562 1172.910156 875.761719 Z M 922.480469 256.21875 C 874.925781 236.054688 704.292969 177.027344 699.816406 268.960938 C 696.8125 331.277344 815.785156 323.507812 859.324219 336.824219 C 1036.371094 391.027344 1114.058594 540.914062 1130.875 713.769531 C 1133.445312 740.148438 1153.554688 760.34375 1177.9375 760.34375 C 1198.390625 760.34375 1216.566406 746.011719 1222.890625 724.863281 L 1227.226562 710.390625 C 1209.109375 513.902344 1121.339844 340.523438 922.453125 256.246094 Z M 1070.980469 1191.402344 C 1060.234375 1203.417969 1007.652344 1333.402344 1005.023438 1351.746094 C 997.828125 1402.25 1035.242188 1441.714844 1074.101562 1412.015625 C 1085.398438 1403.40625 1144.597656 1256.925781 1146.5625 1237.65625 C 1152.136719 1182.589844 1104.207031 1154.304688 1070.980469 1191.371094 Z M 806.886719 1136.304688 C 832.195312 1104.523438 859.066406 966.769531 866.113281 920.949219 C 875.273438 861.289062 890.585938 761.902344 876.050781 705.566406 C 856.464844 629.726562 790.449219 586.53125 718.652344 599.824219 C 644.375 613.605469 563.101562 751.992188 644.921875 790.390625 C 702.097656 817.230469 701.605469 716.863281 726.828125 704.035156 C 807.839844 662.804688 784.207031 827.140625 779.496094 868.394531 C 770.976562 942.703125 733.300781 1036.863281 730.730469 1101.289062 C 728.589844 1154.738281 775.886719 1175.191406 806.886719 1136.304688 Z M 806.886719 1136.304688 " fill-opacity="1" fill-rule="nonzero"/><path fill="#ffffff" d="M 52.074219 663.039062 L 1447.78125 663.039062 C 1448.800781 663.039062 1449.8125 663.136719 1450.8125 663.335938 C 1451.816406 663.535156 1452.789062 663.828125 1453.730469 664.21875 C 1454.671875 664.609375 1455.570312 665.089844 1456.417969 665.65625 C 1457.265625 666.222656 1458.050781 666.867188 1458.773438 667.589844 C 1459.496094 668.3125 1460.140625 669.097656 1460.707031 669.945312 C 1461.273438 670.792969 1461.75 671.6875 1462.140625 672.632812 C 1462.53125 673.574219 1462.828125 674.546875 1463.027344 675.546875 C 1463.226562 676.550781 1463.324219 677.558594 1463.324219 678.582031 L 1463.324219 923.144531 C 1463.324219 924.164062 1463.226562 925.175781 1463.027344 926.175781 C 1462.828125 927.179688 1462.53125 928.152344 1462.140625 929.09375 C 1461.75 930.035156 1461.273438 930.933594 1460.707031 931.78125 C 1460.140625 932.628906 1459.496094 933.414062 1458.773438 934.136719 C 1458.050781 934.859375 1457.265625 935.503906 1456.417969 936.070312 C 1455.570312 936.636719 1454.671875 937.113281 1453.730469 937.503906 C 1452.789062 937.894531 1451.816406 938.191406 1450.8125 938.390625 C 1449.8125 938.589844 1448.800781 938.6875 1447.78125 938.6875 L 52.074219 938.6875 C 51.054688 938.6875 50.042969 938.589844 49.039062 938.390625 C 48.039062 938.191406 47.066406 937.894531 46.125 937.503906 C 45.183594 937.113281 44.285156 936.636719 43.4375 936.070312 C 42.589844 935.503906 41.804688 934.859375 41.082031 934.136719 C 40.359375 933.414062 39.714844 932.628906 39.148438 931.78125 C 38.582031 930.933594 38.105469 930.035156 37.714844 929.09375 C 37.324219 928.152344 37.027344 927.179688 36.828125 926.175781 C 36.628906 925.175781 36.53125 924.164062 36.53125 923.144531 L 36.53125 678.582031 C 36.53125 677.558594 36.628906 676.550781 36.828125 675.546875 C 37.027344 674.546875 37.324219 673.574219 37.714844 672.632812 C 38.105469 671.6875 38.582031 670.792969 39.148438 669.945312 C 39.714844 669.097656 40.359375 668.3125 41.082031 667.589844 C 41.804688 666.867188 42.589844 666.222656 43.4375 665.65625 C 44.285156 665.089844 45.183594 664.609375 46.125 664.21875 C 47.066406 663.828125 48.039062 663.535156 49.039062 663.335938 C 50.042969 663.136719 51.054688 663.039062 52.074219 663.039062 Z M 52.074219 663.039062 " fill-opacity="1" fill-rule="nonzero"/><g clip-path="url(#dba17d41c8)"><path fill="#000000" d="M 1447.753906 637.757812 L 52.101562 637.757812 C 29.597656 637.757812 11.25 656.074219 11.25 678.609375 L 11.25 923.144531 C 11.25 945.652344 29.566406 963.96875 52.101562 963.96875 L 1447.78125 963.96875 C 1470.289062 963.96875 1488.632812 945.652344 1488.632812 923.144531 L 1488.632812 678.609375 C 1488.632812 656.074219 1470.316406 637.757812 1447.78125 637.757812 Z M 1438.046875 897.085938 C 1438.046875 906.097656 1430.734375 913.410156 1421.722656 913.410156 L 78.132812 913.410156 C 69.121094 913.410156 61.808594 906.097656 61.808594 897.085938 L 61.808594 704.640625 C 61.808594 695.625 69.121094 688.316406 78.132812 688.316406 L 1421.722656 688.316406 C 1430.734375 688.316406 1438.046875 695.625 1438.046875 704.640625 Z M 1438.046875 897.085938 " fill-opacity="1" fill-rule="nonzero"/></g><path fill="#000000" d="M 320.617188 786.546875 C 322.871094 793.480469 319.027344 801.078125 312.035156 803.132812 C 300.597656 806.511719 289.242188 809.285156 278.03125 811.453125 C 267.832031 813.417969 263.757812 825.636719 270.839844 833.234375 C 277.511719 840.429688 285.023438 849.011719 293.375 858.976562 C 298.285156 864.84375 297.214844 873.742188 290.945312 878.160156 L 278.464844 887.003906 C 272.484375 891.21875 264.25 889.832031 260.121094 883.796875 C 253.90625 874.722656 247.148438 864.179688 239.867188 852.1875 C 234.636719 843.578125 222.097656 843.808594 217.15625 852.59375 C 210.425781 864.582031 204.128906 874.925781 198.292969 883.621094 C 194.191406 889.746094 185.8125 891.132812 179.832031 886.828125 L 167.726562 878.105469 C 161.570312 873.683594 160.503906 864.902344 165.328125 859.066406 C 174.140625 848.375 181.796875 839.359375 188.296875 832.109375 C 195 824.597656 191.15625 812.695312 181.332031 810.585938 C 169.601562 808.070312 158.191406 805.414062 147.066406 802.609375 C 139.730469 800.761719 135.570312 793.046875 137.910156 785.882812 L 142.734375 770.945312 C 145.015625 763.839844 152.816406 760.140625 159.835938 762.710938 C 172.722656 767.449219 183.847656 771.871094 193.207031 776.003906 C 202.308594 780.019531 212.304688 772.59375 211.378906 762.683594 C 210.050781 748.640625 209.097656 737.027344 208.546875 727.871094 C 208.085938 720.328125 214.09375 714.089844 221.636719 714.089844 L 236.140625 714.089844 C 243.679688 714.089844 249.71875 720.386719 249.226562 727.898438 C 248.59375 738.269531 247.550781 749.769531 246.136719 762.421875 C 245.007812 772.507812 255.0625 779.960938 264.367188 775.914062 C 275.144531 771.234375 286.613281 766.726562 298.804688 762.394531 C 305.710938 759.9375 313.335938 763.78125 315.589844 770.742188 L 320.703125 786.488281 Z M 572.78125 770.800781 C 570.527344 763.839844 562.898438 759.996094 555.996094 762.453125 C 543.804688 766.785156 532.332031 771.265625 521.554688 775.972656 C 512.253906 780.019531 502.199219 772.5625 503.328125 762.480469 C 504.742188 749.828125 505.78125 738.328125 506.417969 727.957031 C 506.878906 720.414062 500.871094 714.144531 493.328125 714.144531 L 478.828125 714.144531 C 471.285156 714.144531 465.277344 720.414062 465.738281 727.925781 C 466.289062 737.085938 467.242188 748.671875 468.570312 762.742188 C 469.523438 772.652344 459.5 780.046875 450.398438 776.058594 C 441.035156 771.929688 429.914062 767.507812 417.027344 762.769531 C 410.035156 760.199219 402.234375 763.898438 399.925781 771.003906 L 395.097656 785.941406 C 392.789062 793.132812 396.949219 800.847656 404.257812 802.667969 C 415.382812 805.472656 426.820312 808.128906 438.523438 810.644531 C 448.347656 812.75 452.1875 824.65625 445.484375 832.167969 C 438.984375 839.449219 431.328125 848.433594 422.515625 859.121094 C 417.691406 864.988281 418.761719 873.742188 424.914062 878.160156 L 437.019531 886.886719 C 443 891.191406 451.378906 889.804688 455.480469 883.679688 C 461.320312 874.984375 467.617188 864.640625 474.347656 852.652344 C 479.289062 843.867188 491.828125 843.609375 497.058594 852.246094 C 504.335938 864.234375 511.097656 874.753906 517.308594 883.851562 C 521.441406 889.890625 529.675781 891.277344 535.65625 887.058594 L 548.136719 878.21875 C 554.40625 873.800781 555.476562 864.902344 550.5625 859.035156 C 542.214844 849.066406 534.703125 840.488281 528.027344 833.292969 C 520.949219 825.667969 525.023438 813.472656 535.222656 811.507812 C 546.460938 809.34375 557.785156 806.570312 569.226562 803.1875 C 576.21875 801.136719 580.0625 793.539062 577.808594 786.605469 L 572.695312 770.859375 Z M 839.707031 770.800781 C 837.453125 763.839844 829.828125 759.996094 822.921875 762.453125 C 810.730469 766.785156 799.257812 771.265625 788.484375 775.972656 C 779.179688 780.019531 769.125 772.5625 770.253906 762.480469 C 771.667969 749.828125 772.707031 738.328125 773.34375 727.957031 C 773.804688 720.414062 767.796875 714.144531 760.257812 714.144531 L 745.753906 714.144531 C 738.210938 714.144531 732.203125 720.414062 732.664062 727.925781 C 733.214844 737.085938 734.167969 748.671875 735.527344 762.742188 C 736.480469 772.652344 726.453125 780.046875 717.351562 776.058594 C 707.992188 771.929688 696.867188 767.507812 683.984375 762.769531 C 676.992188 760.199219 669.191406 763.898438 666.878906 771.003906 L 662.054688 785.941406 C 659.742188 793.132812 663.902344 800.847656 671.242188 802.667969 C 682.367188 805.472656 693.804688 808.128906 705.507812 810.644531 C 715.332031 812.75 719.171875 824.65625 712.46875 832.167969 C 705.96875 839.449219 698.3125 848.433594 689.5 859.121094 C 684.675781 864.988281 685.746094 873.742188 691.898438 878.160156 L 704.003906 886.886719 C 709.984375 891.191406 718.363281 889.804688 722.464844 883.679688 C 728.300781 874.984375 734.601562 864.640625 741.332031 852.652344 C 746.273438 843.867188 758.8125 843.609375 764.042969 852.246094 C 771.320312 864.234375 778.082031 874.753906 784.292969 883.851562 C 788.425781 889.890625 796.660156 891.277344 802.640625 887.058594 L 815.121094 878.21875 C 821.390625 873.800781 822.460938 864.902344 817.546875 859.035156 C 809.199219 849.066406 801.6875 840.488281 795.011719 833.292969 C 787.933594 825.667969 792.007812 813.472656 802.207031 811.507812 C 813.445312 809.34375 824.769531 806.570312 836.210938 803.1875 C 843.203125 801.136719 847.046875 793.539062 844.792969 786.605469 L 839.679688 770.859375 Z M 1111.804688 770.800781 C 1109.550781 763.839844 1101.925781 759.996094 1095.019531 762.453125 C 1082.828125 766.785156 1071.359375 771.265625 1060.582031 775.972656 C 1051.277344 780.019531 1041.222656 772.5625 1042.351562 762.480469 C 1043.765625 749.828125 1044.804688 738.328125 1045.441406 727.957031 C 1045.90625 720.414062 1039.894531 714.144531 1032.355469 714.144531 L 1017.851562 714.144531 C 1010.308594 714.144531 1004.300781 720.414062 1004.761719 727.925781 C 1005.3125 737.085938 1006.265625 748.671875 1007.59375 762.742188 C 1008.546875 772.652344 998.523438 780.046875 989.421875 776.058594 C 980.0625 771.929688 968.9375 767.507812 956.050781 762.769531 C 949.0625 760.199219 941.261719 763.898438 938.949219 771.003906 L 934.125 785.941406 C 931.8125 793.132812 935.972656 800.847656 943.28125 802.667969 C 954.40625 805.472656 965.847656 808.128906 977.546875 810.644531 C 987.371094 812.75 991.214844 824.65625 984.511719 832.167969 C 978.011719 839.449219 970.355469 848.433594 961.542969 859.121094 C 956.71875 864.988281 957.785156 873.742188 963.941406 878.160156 L 976.046875 886.886719 C 982.027344 891.191406 990.402344 889.804688 994.507812 883.679688 C 1000.34375 874.984375 1006.640625 864.640625 1013.371094 852.652344 C 1018.3125 843.867188 1030.851562 843.609375 1036.082031 852.246094 C 1043.363281 864.234375 1050.121094 874.753906 1056.335938 883.851562 C 1060.464844 889.890625 1068.699219 891.277344 1074.679688 887.058594 L 1087.160156 878.21875 C 1093.429688 873.800781 1094.5 864.902344 1089.589844 859.035156 C 1081.238281 849.066406 1073.726562 840.488281 1067.054688 833.292969 C 1059.972656 825.667969 1064.046875 813.472656 1074.246094 811.507812 C 1085.484375 809.34375 1096.8125 806.570312 1108.25 803.1875 C 1115.242188 801.136719 1119.085938 793.539062 1116.832031 786.605469 L 1111.71875 770.859375 Z M 1375.265625 770.800781 C 1373.011719 763.839844 1365.382812 759.996094 1358.480469 762.453125 C 1346.285156 766.785156 1334.816406 771.265625 1324.039062 775.972656 C 1314.738281 780.019531 1304.683594 772.5625 1305.808594 762.480469 C 1307.226562 749.828125 1308.265625 738.328125 1308.902344 727.957031 C 1309.363281 720.414062 1303.355469 714.144531 1295.8125 714.144531 L 1281.308594 714.144531 C 1273.769531 714.144531 1267.761719 720.414062 1268.222656 727.925781 C 1268.773438 737.085938 1269.726562 748.671875 1271.082031 762.742188 C 1272.035156 772.652344 1262.011719 780.046875 1252.910156 776.058594 C 1243.550781 771.929688 1232.425781 767.507812 1219.539062 762.769531 C 1212.550781 760.199219 1204.75 763.898438 1202.4375 771.003906 L 1197.613281 785.941406 C 1195.300781 793.132812 1199.460938 800.847656 1206.800781 802.667969 C 1217.921875 805.472656 1229.363281 808.128906 1241.066406 810.644531 C 1250.886719 812.75 1254.730469 824.65625 1248.027344 832.167969 C 1241.527344 839.449219 1233.871094 848.433594 1225.058594 859.121094 C 1220.234375 864.988281 1221.304688 873.742188 1227.457031 878.160156 L 1239.5625 886.886719 C 1245.542969 891.191406 1253.921875 889.804688 1258.023438 883.679688 C 1263.859375 874.984375 1270.160156 864.640625 1276.890625 852.652344 C 1281.832031 843.867188 1294.371094 843.609375 1299.597656 852.246094 C 1306.878906 864.234375 1313.640625 874.753906 1319.851562 883.851562 C 1323.984375 889.890625 1332.214844 891.277344 1338.199219 887.058594 L 1350.679688 878.21875 C 1356.949219 873.800781 1358.015625 864.902344 1353.105469 859.035156 C 1344.753906 849.066406 1337.242188 840.488281 1330.570312 833.292969 C 1323.492188 825.667969 1327.566406 813.472656 1337.765625 811.507812 C 1349.003906 809.34375 1360.328125 806.570312 1371.769531 803.1875 C 1378.761719 801.136719 1382.601562 793.539062 1380.351562 786.605469 L 1375.234375 770.859375 Z M 1375.265625 770.800781 " fill-opacity="1" fill-rule="nonzero"/></svg>