<svg xmlns="http://www.w3.org/2000/svg" xmlns:xlink="http://www.w3.org/1999/xlink" width="2000" zoomAndPan="magnify" viewBox="0 0 1500 1499.999933" height="2000" preserveAspectRatio="xMidYMid meet" version="1.0"><path fill="#9d4dff" d="M 204.285156 581.417969 C 204.285156 568.472656 214.777344 557.980469 227.722656 557.980469 L 819.683594 557.980469 C 832.628906 557.980469 843.121094 568.472656 843.121094 581.417969 C 843.121094 594.359375 832.628906 604.855469 819.683594 604.855469 L 227.722656 604.855469 C 214.777344 604.855469 204.285156 594.359375 204.285156 581.417969 Z M 756.578125 1255.789062 L 227.722656 1255.789062 C 214.777344 1255.789062 204.285156 1266.285156 204.285156 1279.226562 C 204.285156 1292.171875 214.777344 1302.664062 227.722656 1302.664062 L 756.578125 1302.664062 C 769.519531 1302.664062 780.015625 1292.171875 780.015625 1279.226562 C 780.015625 1266.285156 769.519531 1255.789062 756.578125 1255.789062 Z M 227.722656 430.398438 L 652.664062 430.398438 C 665.605469 430.398438 676.101562 419.90625 676.101562 406.960938 C 676.101562 394.019531 665.605469 383.523438 652.664062 383.523438 L 227.722656 383.523438 C 214.777344 383.523438 204.285156 394.019531 204.285156 406.960938 C 204.285156 419.90625 214.777344 430.398438 227.722656 430.398438 Z M 1485.832031 1422.742188 L 1425.839844 1484.570312 C 1415.867188 1494.847656 1402.578125 1500.011719 1389.273438 1500.011719 C 1376.488281 1500.011719 1363.6875 1495.238281 1353.804688 1485.65625 L 1198.460938 1334.914062 C 1194.164062 1339.972656 1187.765625 1343.1875 1180.609375 1343.1875 L 1047.230469 1343.1875 L 1047.230469 1476.5625 C 1047.230469 1489.503906 1036.734375 1500 1023.792969 1500 L 23.621094 1500 C 10.675781 1500 0.183594 1489.503906 0.183594 1476.5625 L 0.183594 180.25 C 0.183594 167.308594 10.675781 156.8125 23.621094 156.8125 L 157 156.8125 L 157 23.4375 C 157 10.492188 167.492188 0 180.4375 0 L 1018.558594 0 C 1024.777344 0 1030.734375 2.46875 1035.132812 6.863281 L 1197.179688 168.910156 C 1201.574219 173.308594 1204.042969 179.265625 1204.042969 185.484375 L 1204.042969 790.066406 C 1229.011719 836.148438 1243.203125 888.882812 1243.203125 944.867188 C 1243.203125 1007.066406 1225.683594 1065.25 1195.332031 1114.757812 L 1261.671875 1179.851562 C 1268.070312 1176.890625 1275.066406 1175.230469 1282.34375 1175.121094 C 1296.027344 1175.042969 1308.847656 1180.011719 1318.589844 1189.46875 L 1484.75 1350.703125 C 1504.902344 1370.273438 1505.386719 1402.585938 1485.832031 1422.742188 Z M 1167.675781 1153.289062 C 1161.382812 1160.839844 1154.761719 1168.109375 1147.824219 1175.066406 L 1206.09375 1232.246094 L 1226.601562 1211.109375 Z M 1196.324219 944.867188 C 1196.324219 790.953125 1071.109375 665.730469 917.191406 665.730469 C 763.273438 665.730469 638.054688 790.953125 638.054688 944.867188 C 638.054688 1098.785156 763.273438 1224.003906 917.191406 1224.003906 C 1071.109375 1224.003906 1196.324219 1098.785156 1196.324219 944.867188 Z M 885.179688 318.863281 L 967.203125 318.863281 L 885.179688 236.835938 Z M 1041.996094 162.046875 L 1124.019531 162.046875 L 1041.996094 80.019531 Z M 203.875 156.8125 L 861.742188 156.8125 C 867.957031 156.8125 873.917969 159.285156 878.316406 163.679688 L 1040.363281 325.726562 C 1044.757812 330.125 1047.226562 336.085938 1047.226562 342.300781 L 1047.226562 645.941406 C 1089.195312 664.269531 1126.585938 691.175781 1157.167969 724.445312 L 1157.167969 208.921875 L 1018.558594 208.921875 C 1005.617188 208.921875 995.121094 198.425781 995.121094 185.484375 L 995.121094 46.875 L 203.875 46.875 Z M 1000.351562 1319.746094 L 1000.351562 1260.113281 C 973.792969 1267.125 945.921875 1270.878906 917.191406 1270.878906 C 805.359375 1270.878906 706.511719 1214.269531 647.761719 1128.214844 L 227.722656 1128.214844 C 214.777344 1128.214844 204.285156 1117.71875 204.285156 1104.777344 C 204.285156 1091.832031 214.777344 1081.339844 227.722656 1081.339844 L 621.160156 1081.339844 C 603.105469 1042.335938 592.53125 999.195312 591.304688 953.757812 L 227.722656 953.757812 C 214.777344 953.757812 204.285156 943.265625 204.285156 930.320312 C 204.285156 917.378906 214.777344 906.882812 227.722656 906.882812 L 593.40625 906.882812 C 598.785156 860.75 613.824219 817.535156 636.457031 779.304688 L 227.722656 779.304688 C 214.777344 779.304688 204.285156 768.8125 204.285156 755.867188 C 204.285156 742.925781 214.777344 732.429688 227.722656 732.429688 L 670.101562 732.429688 C 729.933594 662.933594 818.507812 618.851562 917.191406 618.851562 C 945.921875 618.851562 973.789062 622.605469 1000.351562 629.617188 L 1000.351562 365.734375 L 861.742188 365.734375 C 848.796875 365.734375 838.304688 355.242188 838.304688 342.296875 L 838.304688 203.6875 L 47.058594 203.6875 L 47.058594 1453.125 L 1000.351562 1453.125 Z M 1157.167969 1296.308594 L 1157.167969 1249.914062 L 1112.304688 1205.886719 C 1092.265625 1220.90625 1070.441406 1233.652344 1047.222656 1243.792969 L 1047.222656 1296.308594 Z M 1452.101562 1384.339844 L 1285.941406 1223.105469 C 1285 1222.1875 1283.898438 1221.988281 1283.117188 1221.988281 C 1283.09375 1221.988281 1283.070312 1221.988281 1283.050781 1221.988281 C 1282.265625 1222 1281.132812 1222.222656 1280.1875 1223.191406 L 1220.195312 1285.019531 C 1218.683594 1286.570312 1218.726562 1289.261719 1220.277344 1290.773438 L 1386.441406 1452.007812 C 1387.996094 1453.519531 1390.691406 1453.476562 1392.199219 1451.921875 L 1452.191406 1390.09375 C 1453.703125 1388.542969 1453.65625 1385.851562 1452.101562 1384.339844 Z M 1157.894531 944.867188 C 1157.894531 1077.59375 1049.917969 1185.570312 917.191406 1185.570312 C 784.464844 1185.570312 676.488281 1077.59375 676.488281 944.867188 C 676.488281 812.140625 784.464844 704.164062 917.191406 704.164062 C 1049.917969 704.164062 1157.894531 812.140625 1157.894531 944.867188 Z M 1111.019531 944.867188 C 1111.019531 837.992188 1024.066406 751.039062 917.191406 751.039062 C 810.316406 751.039062 723.363281 837.992188 723.363281 944.867188 C 723.363281 1051.742188 810.316406 1138.695312 917.191406 1138.695312 C 1024.066406 1138.695312 1111.019531 1051.742188 1111.019531 944.867188 Z M 1111.019531 944.867188 " fill-opacity="1" fill-rule="nonzero"/></svg>