<svg xmlns="http://www.w3.org/2000/svg" xmlns:xlink="http://www.w3.org/1999/xlink" width="2000" zoomAndPan="magnify" viewBox="0 0 1500 1499.999933" height="2000" preserveAspectRatio="xMidYMid meet" version="1.0"><defs><clipPath id="d1b3ef9396"><path d="M 0 991 L 1485 991 L 1485 1165 L 0 1165 Z M 0 991 " clip-rule="nonzero"/></clipPath><clipPath id="fee81c405c"><path d="M 610 210 L 1485 210 L 1485 955 L 610 955 Z M 610 210 " clip-rule="nonzero"/></clipPath></defs><path fill="#9d4dff" d="M 355.347656 919.398438 L 355.347656 887.699219 C 342.632812 886.582031 327.957031 884.671875 313.285156 882.15625 C 252.519531 871.53125 222.101562 850.632812 192.683594 830.421875 C 189.402344 828.164062 186.054688 825.886719 182.667969 823.601562 C 171.96875 845.492188 149.519531 860.648438 123.53125 860.648438 L 28.402344 860.648438 C 18.214844 860.648438 8.597656 858.253906 -0.015625 854.097656 L -0.015625 954.164062 L 360.117188 954.164062 C 357.035156 943.089844 355.351562 931.4375 355.351562 919.394531 Z M 355.347656 919.398438 " fill-opacity="1" fill-rule="nonzero"/><path fill="#9d4dff" d="M 638.261719 1201.761719 L 579.066406 1352.144531 L 905.933594 1352.144531 L 846.742188 1201.761719 Z M 638.261719 1201.761719 " fill-opacity="1" fill-rule="nonzero"/><path fill="#9d4dff" d="M 651.644531 552.859375 L 594.34375 552.859375 C 596.609375 574.085938 597.824219 603.617188 598.351562 630.769531 L 651.644531 630.769531 C 673.148438 630.769531 690.644531 613.3125 690.644531 591.859375 C 690.644531 570.402344 673.148438 552.859375 651.644531 552.859375 Z M 651.644531 552.859375 " fill-opacity="1" fill-rule="nonzero"/><path fill="#9d4dff" d="M 651.644531 668.09375 L 598.691406 668.09375 C 598.660156 683.269531 598.398438 694.769531 598.03125 699.074219 C 597.167969 708.90625 594.988281 733.386719 573.371094 746 L 651.644531 746 C 673.148438 746 690.644531 728.546875 690.644531 707.089844 C 690.644531 685.636719 673.148438 668.089844 651.644531 668.089844 Z M 651.644531 668.09375 " fill-opacity="1" fill-rule="nonzero"/><path fill="#9d4dff" d="M 619.640625 437.628906 L 522.082031 437.628906 C 544.15625 461.222656 564.875 488.570312 582.484375 515.535156 L 619.640625 515.535156 C 641.144531 515.535156 658.640625 498.078125 658.640625 476.625 C 658.640625 455.171875 641.144531 437.625 619.640625 437.625 Z M 619.640625 437.628906 " fill-opacity="1" fill-rule="nonzero"/><path fill="#9d4dff" d="M 1051.066406 1444.601562 C 1051.066406 1414.203125 1026.296875 1389.46875 995.847656 1389.46875 L 933.390625 1389.46875 C 933.375 1389.46875 933.359375 1389.476562 933.339844 1389.476562 C 933.320312 1389.476562 933.300781 1389.46875 933.28125 1389.46875 L 551.722656 1389.46875 C 551.703125 1389.46875 551.683594 1389.476562 551.660156 1389.476562 C 551.648438 1389.476562 551.628906 1389.46875 551.613281 1389.46875 L 489.15625 1389.46875 C 458.707031 1389.46875 433.9375 1414.203125 433.9375 1444.601562 L 433.9375 1499.824219 L 1051.070312 1499.824219 L 1051.070312 1444.601562 Z M 1051.066406 1444.601562 " fill-opacity="1" fill-rule="nonzero"/><path fill="#9d4dff" d="M 646.5625 822.324219 C 646.5625 800.820312 629.105469 783.324219 607.648438 783.324219 L 512.34375 783.324219 C 490.886719 783.324219 473.429688 800.820312 473.429688 822.324219 C 473.429688 843.832031 490.886719 861.238281 512.34375 861.238281 L 607.648438 861.238281 C 629.105469 861.238281 646.5625 843.78125 646.5625 822.324219 Z M 646.5625 822.324219 " fill-opacity="1" fill-rule="nonzero"/><path fill="#9d4dff" d="M 123.535156 430.8125 C 146.578125 430.8125 166.863281 442.722656 178.628906 460.679688 C 205.429688 453.289062 227.132812 438.71875 249.90625 423.398438 C 278.699219 404.027344 310.277344 382.796875 355.347656 374.066406 L 355.347656 314.070312 C 321.097656 287.289062 296.234375 250.808594 283.542969 210.074219 L 50.355469 210.074219 C 22.578125 210.074219 -0.015625 232.078125 -0.015625 259.125 L -0.015625 437.363281 C 8.597656 433.210938 18.210938 430.8125 28.402344 430.8125 Z M 123.535156 430.8125 " fill-opacity="1" fill-rule="nonzero"/><path fill="#9d4dff" d="M 256.710938 606 C 308.53125 614.828125 341.300781 601.664062 356.890625 565.738281 C 356.953125 565.597656 357.03125 565.464844 357.101562 565.320312 C 357.191406 565.128906 357.289062 564.9375 357.382812 564.746094 C 357.710938 564.101562 358.0625 563.480469 358.453125 562.890625 C 358.511719 562.800781 358.5625 562.710938 358.621094 562.625 C 359.097656 561.925781 359.617188 561.273438 360.175781 560.65625 C 360.265625 560.558594 360.359375 560.464844 360.449219 560.367188 C 360.992188 559.792969 361.5625 559.253906 362.167969 558.761719 C 362.222656 558.714844 362.277344 558.660156 362.335938 558.613281 C 362.992188 558.085938 363.6875 557.613281 364.40625 557.179688 C 364.539062 557.097656 364.675781 557.027344 364.816406 556.945312 C 366.316406 556.097656 367.929688 555.460938 369.605469 555.050781 C 369.746094 555.015625 369.882812 554.980469 370.019531 554.949219 C 370.859375 554.765625 371.710938 554.628906 372.578125 554.558594 C 372.582031 554.558594 372.585938 554.558594 372.589844 554.558594 C 373.441406 554.496094 374.296875 554.5 375.15625 554.554688 C 375.261719 554.558594 375.363281 554.5625 375.464844 554.570312 C 376.320312 554.640625 377.179688 554.757812 378.03125 554.945312 C 378.0625 554.953125 378.09375 554.964844 378.128906 554.972656 C 378.882812 555.144531 379.628906 555.378906 380.375 555.648438 C 380.5625 555.714844 380.746094 555.78125 380.925781 555.855469 C 381.097656 555.921875 381.265625 555.972656 381.4375 556.042969 C 382.039062 556.304688 382.617188 556.59375 383.175781 556.910156 L 383.179688 556.914062 C 383.921875 557.332031 384.613281 557.8125 385.277344 558.316406 C 385.410156 558.414062 385.539062 558.515625 385.667969 558.621094 C 386.347656 559.164062 386.992188 559.742188 387.582031 560.363281 C 396.746094 570.085938 412.085938 574.367188 428.324219 578.90625 C 442.015625 582.726562 456.171875 586.683594 468.089844 594.503906 C 472.6875 597.523438 475.71875 602.417969 476.375 607.878906 C 485.136719 680.761719 510.039062 704.742188 526.019531 712.628906 C 526.945312 712.960938 527.839844 713.363281 528.695312 713.832031 C 534.488281 716.222656 538.722656 716.472656 539.875 716.488281 C 540.25 716.4375 540.179688 716.464844 540.59375 716.464844 C 540.640625 716.464844 540.695312 716.464844 540.757812 716.464844 C 556.484375 716.273438 559.296875 713.382812 560.835938 695.847656 C 561.527344 687.71875 561.714844 671.007812 561.492188 651.425781 C 561.421875 650.769531 561.378906 650.105469 561.378906 649.429688 C 561.378906 648.976562 561.414062 648.53125 561.445312 648.085938 C 560.878906 606.953125 558.554688 554.882812 555.253906 542.191406 C 523.191406 491.691406 491.207031 456.0625 464.1875 434.195312 C 463.636719 433.804688 463.113281 433.386719 462.609375 432.941406 C 442.050781 416.59375 424.453125 408.304688 412.039062 407.625 C 398.945312 406.925781 387.03125 407.328125 376.03125 408.59375 C 375.972656 408.597656 375.914062 408.609375 375.851562 408.613281 C 331.046875 413.816406 301.558594 433.617188 270.726562 454.359375 C 246.476562 470.671875 221.5 487.425781 189.34375 496.429688 C 189.34375 496.46875 189.351562 496.507812 189.351562 496.546875 L 189.351562 783.402344 C 198.085938 788.859375 206.050781 794.324219 213.804688 799.652344 C 242.320312 819.242188 266.941406 836.160156 319.640625 845.375 C 331.910156 847.480469 344.414062 849.160156 355.335938 850.222656 L 355.335938 626.042969 C 338.636719 637.902344 316.101562 645.960938 285.628906 645.960938 C 274.90625 645.960938 263.207031 644.964844 250.429688 642.785156 C 240.269531 641.054688 233.433594 631.410156 235.167969 621.253906 C 236.898438 611.09375 246.542969 604.253906 256.699219 605.992188 Z M 256.710938 606 " fill-opacity="1" fill-rule="nonzero"/><path fill="#9d4dff" d="M 384.8125 289.484375 C 389.742188 292.984375 392.671875 298.65625 392.671875 304.703125 L 392.671875 370.054688 C 399.519531 369.871094 406.640625 369.960938 414.058594 370.355469 C 435.660156 371.535156 458.722656 382.875 481.507812 400.304688 L 577.703125 400.304688 L 577.703125 304.703125 C 577.703125 298.652344 580.636719 292.976562 585.578125 289.476562 C 631.597656 256.875 659.078125 203.765625 659.078125 147.417969 C 659.078125 86.78125 627.957031 31.648438 577.820312 0.175781 L 577.820312 132.871094 C 577.820312 139.363281 574.441406 145.390625 568.90625 148.78125 L 494.9375 194.101562 C 488.957031 197.765625 481.421875 197.765625 475.441406 194.101562 L 401.46875 148.78125 C 395.933594 145.390625 392.554688 139.363281 392.554688 132.871094 L 392.554688 0.175781 C 342.421875 31.644531 311.296875 86.777344 311.296875 147.417969 C 311.296875 203.710938 338.777344 256.820312 384.8125 289.488281 Z M 384.8125 289.484375 " fill-opacity="1" fill-rule="nonzero"/><path fill="#9d4dff" d="M 404.410156 964.425781 C 420.253906 992.730469 450.515625 1011.914062 485.1875 1011.914062 C 519.859375 1011.914062 550.121094 992.730469 565.960938 964.429688 C 566.1875 963.984375 566.433594 963.550781 566.691406 963.121094 C 573.710938 950.09375 577.703125 935.203125 577.703125 919.398438 L 577.703125 898.5625 L 512.34375 898.5625 C 470.304688 898.5625 436.109375 864.363281 436.109375 822.328125 C 436.109375 783.414062 465.359375 751.230469 503 746.597656 L 502.433594 742.089844 C 478.730469 727.476562 451.292969 694.804688 440.625 622.050781 C 434.246094 619.3125 426.433594 617.132812 418.292969 614.859375 C 410.007812 612.546875 401.25 610.097656 392.671875 606.726562 L 392.671875 919.398438 C 392.671875 935.207031 396.664062 950.097656 403.6875 963.128906 C 403.945312 963.554688 404.191406 963.984375 404.414062 964.429688 Z M 404.410156 964.425781 " fill-opacity="1" fill-rule="nonzero"/><g clip-path="url(#d1b3ef9396)"><path fill="#9d4dff" d="M 50.355469 1164.4375 L 859.898438 1164.4375 C 859.898438 1164.4375 859.914062 1164.4375 859.921875 1164.4375 L 1434.558594 1164.4375 C 1462.386719 1164.4375 1485.019531 1142.433594 1485.019531 1115.390625 L 1485.019531 991.488281 L 593.113281 991.488281 C 569.792969 1026.28125 530.128906 1049.234375 485.1875 1049.234375 C 440.25 1049.234375 400.578125 1026.28125 377.261719 991.488281 L -0.015625 991.488281 L -0.015625 1115.390625 C -0.015625 1142.433594 22.578125 1164.4375 50.355469 1164.4375 Z M 671.308594 1059.257812 L 813.695312 1059.257812 C 824.003906 1059.257812 832.355469 1067.613281 832.355469 1077.917969 C 832.355469 1088.222656 824 1096.578125 813.695312 1096.578125 L 671.308594 1096.578125 C 661 1096.578125 652.648438 1088.222656 652.648438 1077.917969 C 652.648438 1067.613281 661.003906 1059.257812 671.308594 1059.257812 Z M 671.308594 1059.257812 " fill-opacity="1" fill-rule="nonzero"/></g><path fill="#9d4dff" d="M 28.402344 823.324219 L 123.535156 823.324219 C 139.253906 823.324219 152.042969 810.574219 152.042969 794.902344 L 152.042969 496.550781 C 152.042969 493.933594 151.65625 491.40625 150.988281 489 C 150.707031 488.292969 150.472656 487.554688 150.273438 486.800781 C 146.269531 475.929688 135.8125 468.132812 123.535156 468.132812 L 28.402344 468.132812 C 12.730469 468.132812 -0.015625 480.882812 -0.015625 496.550781 L -0.015625 794.902344 C -0.015625 810.574219 12.730469 823.324219 28.402344 823.324219 Z M 28.402344 823.324219 " fill-opacity="1" fill-rule="nonzero"/><g clip-path="url(#fee81c405c)"><path fill="#9d4dff" d="M 615.027344 314.074219 L 615.027344 400.304688 L 619.640625 400.304688 C 661.722656 400.304688 695.960938 434.542969 695.960938 476.625 C 695.960938 493.398438 690.496094 508.917969 681.269531 521.519531 C 708.683594 533.109375 727.964844 560.273438 727.964844 591.859375 C 727.964844 614.832031 717.722656 635.453125 701.574219 649.441406 C 717.722656 663.445312 727.964844 684.089844 727.964844 707.089844 C 727.964844 742.265625 703.984375 771.941406 671.496094 780.691406 C 679.316406 792.675781 683.882812 806.972656 683.882812 822.324219 C 683.882812 861.871094 653.609375 894.46875 615.023438 898.191406 L 615.023438 919.390625 C 615.023438 931.4375 613.339844 943.085938 610.257812 954.160156 L 1485.015625 954.160156 L 1485.015625 259.125 C 1485.015625 232.078125 1462.378906 210.074219 1434.554688 210.074219 L 686.84375 210.074219 C 674.15625 250.839844 649.289062 287.328125 615.023438 314.078125 Z M 784.894531 555.007812 C 784.894531 533.871094 798.410156 515.292969 818.523438 508.777344 L 835.5 503.234375 C 839.21875 502.042969 841.570312 499.683594 842.789062 495.996094 C 846.925781 483.398438 852.078125 470.894531 858.101562 458.847656 C 859.914062 455.296875 859.910156 452.074219 858.152344 448.578125 L 850.0625 432.75 C 840.449219 413.796875 844.03125 391.070312 858.953125 376.144531 L 897.304688 337.882812 C 912.441406 322.742188 934.609375 319.242188 953.773438 328.96875 L 969.617188 336.976562 C 973.15625 338.800781 976.390625 338.796875 979.921875 337.03125 C 991.964844 331.007812 1004.472656 325.851562 1017.09375 321.707031 C 1020.824219 320.453125 1023.074219 318.207031 1024.261719 314.480469 L 1029.867188 297.386719 C 1036.3125 277.351562 1054.929688 263.820312 1076.164062 263.820312 L 1130.210938 263.820312 C 1151.445312 263.820312 1170.066406 277.351562 1176.542969 297.488281 L 1182.066406 314.3125 C 1183.304688 318.207031 1185.558594 320.453125 1189.417969 321.75 C 1201.910156 325.851562 1214.417969 331.007812 1226.464844 337.03125 C 1229.996094 338.796875 1233.226562 338.796875 1236.636719 337.042969 L 1252.632812 328.953125 C 1271.765625 319.246094 1293.929688 322.738281 1309.074219 337.878906 L 1347.425781 376.144531 C 1362.347656 391.066406 1365.929688 413.796875 1356.339844 432.699219 L 1348.203125 448.613281 C 1346.46875 452.046875 1346.460938 455.277344 1348.210938 458.710938 C 1354.300781 470.894531 1359.457031 483.398438 1363.597656 496.019531 C 1364.808594 499.679688 1367.164062 502.039062 1370.789062 503.203125 L 1387.894531 508.785156 C 1407.96875 515.289062 1421.484375 533.871094 1421.484375 555.003906 L 1421.484375 609.140625 C 1421.484375 630.328125 1407.96875 648.945312 1387.855469 655.457031 L 1370.796875 660.9375 C 1367.15625 662.140625 1364.828125 664.460938 1363.605469 668.191406 C 1359.453125 680.832031 1354.300781 693.339844 1348.277344 705.386719 C 1346.449219 708.9375 1346.480469 712.167969 1348.277344 715.761719 L 1356.316406 731.484375 C 1366.066406 750.695312 1362.566406 772.859375 1347.425781 788 L 1309.042969 826.292969 C 1293.894531 841.4375 1271.726562 844.964844 1252.609375 835.261719 L 1236.691406 827.125 C 1233.183594 825.335938 1230.023438 825.332031 1226.464844 827.113281 C 1214.652344 833.109375 1202.113281 838.3125 1189.292969 842.519531 C 1185.628906 843.730469 1183.269531 846.085938 1182.105469 849.710938 L 1176.515625 866.753906 C 1170.050781 886.84375 1151.429688 900.40625 1130.214844 900.40625 L 1076.171875 900.40625 C 1054.953125 900.40625 1036.335938 886.84375 1029.839844 866.65625 L 1024.320312 849.824219 C 1023.097656 846.019531 1020.820312 843.738281 1017.121094 842.53125 C 1004.277344 838.3125 991.734375 833.105469 979.820312 827.0625 C 976.394531 825.34375 973.160156 825.34375 969.75 827.097656 L 953.828125 835.238281 C 934.652344 844.964844 912.488281 841.433594 897.3125 826.261719 L 858.992188 788.027344 C 843.824219 772.859375 840.324219 750.695312 850.050781 731.53125 L 858.1875 715.613281 C 859.914062 712.15625 859.933594 708.875 858.179688 705.429688 C 852.132812 693.429688 846.96875 680.9375 842.792969 668.214844 C 841.574219 664.488281 839.292969 662.210938 835.601562 661.027344 L 818.496094 655.445312 C 798.421875 648.945312 784.90625 630.328125 784.90625 609.140625 L 784.90625 555.003906 Z M 784.894531 555.007812 " fill-opacity="1" fill-rule="nonzero"/></g><path fill="#9d4dff" d="M 1103.1875 721.496094 C 1140.417969 721.496094 1175.417969 706.996094 1201.742188 680.671875 C 1256.085938 626.332031 1256.085938 537.910156 1201.742188 483.5625 C 1174.570312 456.390625 1138.878906 442.808594 1103.1875 442.808594 C 1067.496094 442.808594 1031.804688 456.394531 1004.632812 483.5625 C 978.308594 509.886719 963.8125 544.886719 963.8125 582.117188 C 963.8125 619.347656 978.308594 654.351562 1004.632812 680.671875 C 1030.957031 707 1065.957031 721.496094 1103.1875 721.496094 Z M 1103.1875 721.496094 " fill-opacity="1" fill-rule="nonzero"/><path fill="#9d4dff" d="M 830.023438 619.953125 L 847.078125 625.519531 C 862.179688 630.363281 873.28125 641.410156 878.246094 656.589844 C 881.839844 667.53125 886.285156 678.292969 891.457031 688.554688 C 898.597656 702.554688 898.621094 718.175781 891.480469 732.453125 L 883.296875 748.46875 C 880.96875 753.058594 881.722656 757.984375 885.339844 761.605469 L 923.691406 799.871094 C 927.347656 803.527344 932.273438 804.316406 936.875 801.980469 L 952.699219 793.894531 C 959.769531 790.253906 967.242188 788.425781 974.742188 788.425781 C 982.125 788.425781 989.53125 790.195312 996.605469 793.734375 C 1006.933594 798.976562 1017.707031 803.445312 1028.730469 807.066406 C 1043.890625 812.019531 1054.9375 823.121094 1059.808594 838.3125 L 1065.324219 855.125 C 1066.917969 860.074219 1071.058594 863.085938 1076.15625 863.085938 L 1130.203125 863.085938 C 1135.304688 863.085938 1139.441406 860.074219 1141.003906 855.222656 L 1146.589844 838.195312 C 1151.335938 823.390625 1162.65625 812.003906 1177.605469 807.070312 C 1188.652344 803.441406 1199.425781 798.972656 1209.652344 793.78125 C 1223.949219 786.632812 1239.535156 786.691406 1253.648438 793.886719 L 1269.53125 802.003906 C 1274.089844 804.316406 1279.015625 803.523438 1282.671875 799.871094 L 1321.019531 761.609375 C 1324.640625 757.988281 1325.394531 753.0625 1323.039062 748.425781 L 1314.953125 732.597656 C 1307.71875 718.132812 1307.753906 702.519531 1314.984375 688.492188 C 1320.089844 678.273438 1324.546875 667.464844 1328.121094 656.570312 C 1333.050781 641.503906 1344.101562 630.445312 1359.222656 625.449219 L 1376.382812 619.9375 C 1381.15625 618.390625 1384.148438 614.25 1384.148438 609.140625 L 1384.148438 555.003906 C 1384.148438 549.875 1381.226562 545.863281 1376.339844 544.277344 L 1359.285156 538.710938 C 1344.453125 533.957031 1333.070312 522.640625 1328.132812 507.691406 C 1324.546875 496.765625 1320.089844 485.957031 1314.878906 475.535156 C 1307.742188 461.542969 1307.730469 445.933594 1314.914062 431.710938 L 1323.0625 415.761719 C 1325.414062 411.132812 1324.65625 406.171875 1321.019531 402.535156 L 1282.699219 364.300781 C 1279.054688 360.65625 1274.125 359.894531 1269.484375 362.25 L 1253.585938 370.285156 C 1239.636719 377.472656 1224.023438 377.542969 1209.757812 370.410156 C 1199.335938 365.199219 1188.527344 360.742188 1177.632812 357.167969 C 1162.332031 352.019531 1151.335938 340.886719 1146.535156 325.777344 L 1141.035156 309.019531 C 1139.433594 304.050781 1135.394531 301.144531 1130.199219 301.144531 L 1076.152344 301.144531 C 1070.957031 301.144531 1066.917969 304.050781 1065.355469 308.917969 L 1059.765625 325.949219 C 1055.019531 340.894531 1044.019531 352.023438 1028.851562 357.128906 C 1017.824219 360.75 1007.015625 365.203125 996.597656 370.414062 C 982.332031 377.546875 966.71875 377.480469 952.636719 370.222656 L 936.898438 362.269531 C 932.230469 359.898438 927.304688 360.65625 923.6875 364.273438 L 885.304688 402.570312 C 881.699219 406.175781 880.9375 411.136719 883.3125 415.808594 L 891.398438 431.632812 C 891.414062 431.660156 891.425781 431.6875 891.4375 431.710938 C 898.621094 445.933594 898.609375 461.546875 891.402344 475.671875 C 886.261719 485.957031 881.804688 496.769531 878.226562 507.664062 C 873.285156 522.636719 861.898438 533.957031 846.980469 538.742188 L 830.054688 544.265625 C 825.125 545.863281 822.207031 549.875 822.207031 555.003906 L 822.207031 609.136719 C 822.207031 614.246094 825.195312 618.390625 830.015625 619.949219 Z M 978.238281 457.171875 C 1047.132812 388.28125 1159.234375 388.277344 1228.132812 457.171875 C 1297.027344 526.070312 1297.027344 638.167969 1228.132812 707.0625 C 1194.761719 740.4375 1150.386719 758.820312 1103.1875 758.820312 C 1055.988281 758.820312 1011.617188 740.441406 978.242188 707.0625 C 944.871094 673.6875 926.492188 629.316406 926.492188 582.117188 C 926.492188 534.921875 944.871094 490.546875 978.242188 457.171875 Z M 978.238281 457.171875 " fill-opacity="1" fill-rule="nonzero"/></svg>